<?xml version="1.0" encoding="UTF-8"?>
<svg id="Layer_1" xmlns="http://www.w3.org/2000/svg" xmlns:xlink="http://www.w3.org/1999/xlink" version="1.1" viewBox="0 0 1024 1024"><metadata><c2pa:manifest xmlns:c2pa="http://c2pa.org/manifest">AAA0RWp1bWIAAAAeanVtZGMycGEAEQAQgAAAqgA4m3EDYzJwYQAAADQfanVtYgAAAEdqdW1kYzJtYQARABCAAACqADibcQN1cm46dXVpZDpkNzNiNjZjMy1hZTU1LTRhMzgtODU1Yy02MjMwYjM3NmNlMjUAAAABtGp1bWIAAAApanVtZGMyYXMAEQAQgAAAqgA4m3EDYzJwYS5hc3NlcnRpb25zAAAAANdqdW1iAAAAJmp1bWRjYm9yABEAEIAAAKoAOJtxA2MycGEuYWN0aW9ucwAAAACpY2JvcqFnYWN0aW9uc4GjZmFjdGlvbmtjMnBhLmVkaXRlZG1zb2Z0d2FyZUFnZW50bUFkb2JlIEZpcmVmbHlxZGlnaXRhbFNvdXJjZVR5cGV4U2h0dHA6Ly9jdi5pcHRjLm9yZy9uZXdzY29kZXMvZGlnaXRhbHNvdXJjZXR5cGUvY29tcG9zaXRlV2l0aFRyYWluZWRBbGdvcml0aG1pY01lZGlhAAAArGp1bWIAAAAoanVtZGNib3IAEQAQgAAAqgA4m3EDYzJwYS5oYXNoLmRhdGEAAAAAfGNib3KlamV4Y2x1c2lvbnOBomVzdGFydBjsZmxlbmd0aBlFtGRuYW1lbmp1bWJmIG1hbmlmZXN0Y2FsZ2ZzaGEyNTZkaGFzaFggKxw923mfyTGXcEUOFo0YhchE+ZL8iKtiWWvvSIqiGK1jcGFkSQAAAAAAAAAAAAAAAgxqdW1iAAAAJGp1bWRjMmNsABEAEIAAAKoAOJtxA2MycGEuY2xhaW0AAAAB4GNib3KoaGRjOnRpdGxlb0dlbmVyYXRlZCBJbWFnZWlkYzpmb3JtYXRtaW1hZ2Uvc3ZnK3htbGppbnN0YW5jZUlEeCx4bXA6aWlkOjc3ZDJmYzY1LWUzNDQtNDA2OC1iOTUxLWVjNWFhZmQ0MzJlN29jbGFpbV9nZW5lcmF0b3J4N0Fkb2JlX0lsbHVzdHJhdG9yLzI5LjYgYWRvYmVfYzJwYS8wLjEyLjIgYzJwYS1ycy8wLjMyLjV0Y2xhaW1fZ2VuZXJhdG9yX2luZm+Bv2RuYW1lcUFkb2JlIElsbHVzdHJhdG9yZ3ZlcnNpb25kMjkuNv9pc2lnbmF0dXJleBlzZWxmI2p1bWJmPWMycGEuc2lnbmF0dXJlamFzc2VydGlvbnOComN1cmx4J3NlbGYjanVtYmY9YzJwYS5hc3NlcnRpb25zL2MycGEuYWN0aW9uc2RoYXNoWCBKacG9/6jeQTB4viTtzPgxOsHRZJU0VnGgDWsGszfUr6JjdXJseClzZWxmI2p1bWJmPWMycGEuYXNzZXJ0aW9ucy9jMnBhLmhhc2guZGF0YWRoYXNoWCBCDvkg8ZfAR59F/XLoMaBZ0AE0NbEVPX6rZLkVHFHqBmNhbGdmc2hhMjU2AAAwEGp1bWIAAAAoanVtZGMyY3MAEQAQgAAAqgA4m3EDYzJwYS5zaWduYXR1cmUAAAAv4GNib3LShFkM76IBOCQYIYJZBj0wggY5MIIEIaADAgECAhAVjf8nrCPSuCVLTmM3Hh2eMA0GCSqGSIb3DQEBCwUAMHUxCzAJBgNVBAYTAlVTMSMwIQYDVQQKExpBZG9iZSBTeXN0ZW1zIEluY29ycG9yYXRlZDEdMBsGA1UECxMUQWRvYmUgVHJ1c3QgU2VydmljZXMxIjAgBgNVBAMTGUFkb2JlIFByb2R1Y3QgU2VydmljZXMgRzMwHhcNMjQxMDE1MDAwMDAwWhcNMjUxMDE1MjM1OTU5WjCBqzETMBEGA1UEAwwKQWRvYmUgQzJQQTEoMCYGA1UECwwfQ29udGVudCBBdXRoZW50aWNpdHkgSW5pdGlhdGl2ZTETMBEGA1UECgwKQWRvYmUgSW5jLjERMA8GA1UEBwwIU2FuIEpvc2UxEzARBgNVBAgMCkNhbGlmb3JuaWExCzAJBgNVBAYTAlVTMSAwHgYJKoZIhvcNAQkBFhFjYWktb3BzQGFkb2JlLmNvbTCCASIwDQYJKoZIhvcNAQEBBQADggEPADCCAQoCggEBAMMQwYHQfT1y6TFz8OaDYGJBVgzz9Wkn7YfU2TyDTrTkJYadb+IfoTMWVhY5Gd0SUbqEga7EkmAWhH4gzCorIv7DsbhRygVf/5da790q464sQDVyJaoxnSGMnWjGhWv+aLxc/5uPklM9HHGM6sPr0gM7kckhp6YJvBpo/khCXC/xiB86lPW1MtzbIs2NqGNvMo99q25DqngA0jOdTqiCSpaBARRXsczLp86VPitrC6oXqEfBSTGkdHxl2v4Kkc4ZIgRYcFISz0vbOvkwp89PVGTJV23Rv4hSo91DxVA46odMLRYHM9uA61JWlnopbSh6LspgR7oq875jhtFbUj3qcTkCAwEAAaOCAYwwggGIMAwGA1UdEwEB/wQCMAAwDgYDVR0PAQH/BAQDAgeAMB4GA1UdJQQXMBUGCSqGSIb3LwEBDAYIKwYBBQUHAwQwgY4GA1UdIASBhjCBgzCBgAYJKoZIhvcvAQIDMHMwcQYIKwYBBQUHAgIwZQxjWW91IGFyZSBub3QgcGVybWl0dGVkIHRvIHVzZSB0aGlzIExpY2Vuc2UgQ2VydGlmaWNhdGUgZXhjZXB0IGFzIHBlcm1pdHRlZCBieSB0aGUgbGljZW5zZSBhZ3JlZW1lbnQuMF0GA1UdHwRWMFQwUqBQoE6GTGh0dHA6Ly9wa2ktY3JsLnN5bWF1dGguY29tL2NhXzdhNWMzYTBjNzMxMTc0MDZhZGQxOTMxMmJjMWJjMjNmL0xhdGVzdENSTC5jcmwwNwYIKwYBBQUHAQEEKzApMCcGCCsGAQUFBzABhhtodHRwOi8vcGtpLW9jc3Auc3ltYXV0aC5jb20wHwYDVR0jBBgwFoAUVyl6Mk3M/uQ1TsAfJHPOc1Or32owDQYJKoZIhvcNAQELBQADggIBAKq5ehS0PnPS2Gn9IoMk4BKzS/V5ponok96IShXrydwTe5FpGQ9c521cN151+bYEGiqvgIkgpXTcWBCqlPkavS69uhhoJQUgNLPw7NpMPti5Z05qIwBwh9wr1UW4Rhx62rIZp34MJhdU0pGlpOzcRIW7fcEKIhDJC0kHjOEuArvte+hcxHcvs85A5EVqnkjkDv6htlkbaP7yKt9BAn+r+hbWsySNQliKoQSuaCYqEjWy7AlSYWq91HGvQ9dbo3mVuJNozwrJ864k5halX7Xd5Nkl1EIO8EHEHF3ygSLVmbfM7Z9CGKGcyWtcfZfXb1ygCbzbA6M+Lg3q0vM/a8y7BEL8y9cj206ePv+pk0wFrKGg7ZpGYJt1/rH3z1918zBZn8yB4mH1I2uZyitm7OD+9bYrf9VPxQ9sXZac2UrqUagjBs/lE3lyPCKzeWUf/hfK0rJkQErY54IM/8A7nMHA5SW2OP0SqtwawIuC2pizCH8KP3Wy+eUw5SDnexwn5koGm3NVjtCo4ty1v1WZz/VRvFolBvlqrTdTkCAGZhVDlnV0Bi2oPiNTmmdQVyQzbCYl3INkxjQUhD6OOAJH5/TMxRisgeVLqzDeDR9KpWpoa4SoldPm+9xY8d99D/368QZs8eTaQEITSpLMfheM9UvAMtaNkwSJJHgBWw88vH/xcbsrWQalMIIGoTCCBImgAwIBAgIQDKi2VHuJ5tIGiXXNi5uJ4jANBgkqhkiG9w0BAQsFADBsMQswCQYDVQQGEwJVUzEjMCEGA1UEChMaQWRvYmUgU3lzdGVtcyBJbmNvcnBvcmF0ZWQxHTAbBgNVBAsTFEFkb2JlIFRydXN0IFNlcnZpY2VzMRkwFwYDVQQDExBBZG9iZSBSb290IENBIEcyMB4XDTE2MTEyOTAwMDAwMFoXDTQxMTEyODIzNTk1OVowdTELMAkGA1UEBhMCVVMxIzAhBgNVBAoTGkFkb2JlIFN5c3RlbXMgSW5jb3Jwb3JhdGVkMR0wGwYDVQQLExRBZG9iZSBUcnVzdCBTZXJ2aWNlczEiMCAGA1UEAxMZQWRvYmUgUHJvZHVjdCBTZXJ2aWNlcyBHMzCCAiIwDQYJKoZIhvcNAQEBBQADggIPADCCAgoCggIBALcfLr29CbNcSGz+DIOubAHqUXglpIA+iaexsohk2vaJdoH5+R3zlfx4mI2Yjs/k7hxVPg1zWnfOsRKoFXhlTJbyBxnvxB3CgcbxA13ZU1wecyBJH5dP0hp+yer01/DDcm30oveXkA1DmfX4wmqvjwRY0uWX3jZs4v8kfjLANIyiqFmq0kQhRRQaVBUFnwIC8lzssTp10DkLnY8TY+lrtF9CAdd/iB9dVnCnFhFlzOI+I4eoS8tvQndxKFRt6MXFXpzBfxDIA9rV48eDVG0zQdf4PfjEejcOTIaeZP4N2rTRMQMYbboAvk90g0oUhCX7NqrookVB7V90YTnCtbNTiYE+bNrPcRsuf7sVaXACGitiogyV1t8cTfJ1z5pNTUlbv5sbX2qa+E70iW4a1O1AN6oUGPZ+Dp9rGx9V9U8Puy03pPCggOWQ4IThET4iKfybfPd6qL9WxOayZGoHFYNFqo4fPTYQmgQPFckbd6L5RsginTVdlC925+b3RbE5O6qpqfZmpM9f0rlV2MSH+i+vvEVzmrV1mj5JrnLixNUzznj+0tTeSU6BQrPNJdg9hLcaEFxgkePCv3E1Eec1f30PoXSDs6KNJxZ++2PGHXdpO/8fQRO/KZqHjJ8OlV2H1wrlhII+qe46Wy6MUDKFjAlc5YO9llTYSRZUsOGg/H3Ons3hAgMBAAGjggE0MIIBMDASBgNVHRMBAf8ECDAGAQH/AgEAMDUGA1UdHwQuMCwwKqAooCaGJGh0dHA6Ly9jcmwuYWRvYmUuY29tL2Fkb2Jlcm9vdGcyLmNybDAOBgNVHQ8BAf8EBAMCAQYwFAYDVR0lBA0wCwYJKoZIhvcvAQEHMFcGA1UdIARQME4wTAYJKoZIhvcvAQIDMD8wPQYIKwYBBQUHAgEWMWh0dHBzOi8vd3d3LmFkb2JlLmNvbS9taXNjL3BraS9wcm9kX3N2Y2VfY3BzLmh0bWwwJAYDVR0RBB0wG6QZMBcxFTATBgNVBAMTDFNZTUMtNDA5Ni0zMzAdBgNVHQ4EFgQUVyl6Mk3M/uQ1TsAfJHPOc1Or32owHwYDVR0jBBgwFoAUphzhbVQkTKiPSHK/bqmM1eTsMdQwDQYJKoZIhvcNAQELBQADggIBAHHO5QeMptwt3MjgO2VeAJKBleuVICSvn2k4Xcl88bjapU0AZTslwRhcnr5Zt9wbBjtZgyX6M7si8k9vuyFcVhb1ucmDFfuUtTXgoTFyGZws1jV57oiEEnZjw/NkxFQpJ3kKRRE+DQ8EsaPP8pH8Oh8fH4bis9MI4Y5FjF5it3TWVyLmFXG8pxy8iTswPr1lN7B9k9Iz7RaexTd/RmZ3uGBtGlTJZx4bR4cWl1Qor9kVaEeMNULbyh0Kc3zzm0edwpe+Ii0rRlRSj8Ai2EUqWEReyer1Uv18VuC87zdm+lRCjnLyZjdy4acRUZd2GM1vncJ8LW7h1uliZZo332y5tTMSxRpRveWgs99V/MM6mDbL2/fuQF3L/C5evbS15jtTrbGP98CCzVBKeFS2UxN8Kpt5/ITJwpWYoismQkuy+BNJgpW8fgUUjB93laOo4L3uNf3ytxUDOEAjSJKRrOxY4y8vqbQvicslqnH7zkaxVfxjoAeYQ/huYISXCKXooA/5R7AkWLDmubBXakRIcCFi5klrTcHy2XSd3ZAnO8kaZt4GpeqkX05GKcUzccSsrym5GiQ6MUfb7Vqwt4ja0HfVb8Qt017bs6B26rpnqoHAKnn1hfburJ0OEPRZF83riQKzbkrzyIYAY1bYIB9MNL5v5ZgkGIgv2NdhngsX4GJS9927o2ZzaWdUc3ShaXRzdFRva2Vuc4GhY3ZhbFkOWjCCDlYwAwIBADCCDk0GCSqGSIb3DQEHAqCCDj4wgg46AgEDMQ8wDQYJYIZIAWUDBAIBBQAwgYIGCyqGSIb3DQEJEAEEoHMEcTBvAgEBBglghkgBhv1sBwEwMTANBglghkgBZQMEAgEFAAQge+8uw8El9iBWzdBUESz5ZRCdB1vUWD6y4XmHKbjJ9SMCEQCD2LMOL/p13Nwuh4N3tykxGA8yMDI1MDcyMzE5NDcyNFoCCDkzJgG3PIlSoIIL2jCCBR4wggMGoAMCAQICEAkZDcEsnIfbMv0KtVC97UswDQYJKoZIhvcNAQELBQAwaTELMAkGA1UEBhMCVVMxFzAVBgNVBAoTDkRpZ2lDZXJ0LCBJbmMuMUEwPwYDVQQDEzhEaWdpQ2VydCBUcnVzdGVkIEc0IFRpbWVTdGFtcGluZyBSU0E0MDk2IFNIQTI1NiAyMDI1IENBMTAeFw0yNTA2MTEwMDAwMDBaFw0zNjA5MTAyMzU5NTlaMF8xCzAJBgNVBAYTAlVTMRcwFQYDVQQKEw5EaWdpQ2VydCwgSW5jLjE3MDUGA1UEAxMuQWRvYmUgU0hBMjU2IEVDQzI1NiBUaW1lc3RhbXAgUmVzcG9uZGVyIDIwMjUgMTBZMBMGByqGSM49AgEGCCqGSM49AwEHA0IABDqZydXZSO9L84jXxrJwIPPeIspw7/k8jP1iwxb5ZO0PbiN3ijVubsdbzV38sK17hnS0u5hnGOEdH2EnsUwRqfKjggGVMIIBkTAMBgNVHRMBAf8EAjAAMB0GA1UdDgQWBBQgdqGjbnEVj3SVDa6kLKQ2P1gZFTAfBgNVHSMEGDAWgBTvb1NK6eQGfHrK4pBW9i/USezLTjAOBgNVHQ8BAf8EBAMCB4AwFgYDVR0lAQH/BAwwCgYIKwYBBQUHAwgwgZUGCCsGAQUFBwEBBIGIMIGFMCQGCCsGAQUFBzABhhhodHRwOi8vb2NzcC5kaWdpY2VydC5jb20wXQYIKwYBBQUHMAKGUWh0dHA6Ly9jYWNlcnRzLmRpZ2ljZXJ0LmNvbS9EaWdpQ2VydFRydXN0ZWRHNFRpbWVTdGFtcGluZ1JTQTQwOTZTSEEyNTYyMDI1Q0ExLmNydDBfBgNVHR8EWDBWMFSgUqBQhk5odHRwOi8vY3JsMy5kaWdpY2VydC5jb20vRGlnaUNlcnRUcnVzdGVkRzRUaW1lU3RhbXBpbmdSU0E0MDk2U0hBMjU2MjAyNUNBMS5jcmwwIAYDVR0gBBkwFzAIBgZngQwBBAIwCwYJYIZIAYb9bAcBMA0GCSqGSIb3DQEBCwUAA4ICAQBKnP4qzrnk6bae64mNkuAvegVfF4WZ752PCIF1U+QchK/h9ENe079SAU7s66f6zo6g2tgpDobFpEtS7bcOasJ4TK8F0TlFf8IAS0rjvc+wOyjxzW2aSOoNIfODENGzChf8QdYixJGuMkzxFYHsp3co+NrSO5m2QVWknOqOT92on1RqrKIp8qsJGLAiktTUJ0FEWePq7ElN+HTLvHOv6tY48dUwk17MXneImj3CL5BI5fZ57pmtt0oBgdY7ywz4RkbS/M1pZ6pQ3UuVODntDU8qkoLGIKYqCqzEZeZJxaKxk/OMS5Q7KssP04mPK9c7xJ4e9/rE8XCGcITeBzZ52wftAJV2wnc6kpnsky5vAjYbCoj0yDAacokbfmT7y9AT0wvOJUPfSLjLyPI5J0xp95cdi8bHRoYDAI5szZ7MZKad1Vav0M+HVwZqY0CuNNSRxZEXTKjRTMnB0bXhVCo+XmeWP/a0uqTbToNPYWwgxAoJrjZQlsiFLaF0vGcc3xKmSnJ5TraBThVPllFZqqZu/D7hAUiAdChY94w7A2lUep9YChxva/tuyiaC8qgx3nmSMaNudy3rnGKQRpIx7lOUaM2Z+jNurUELw4sX16oDovhlbVmJ5Ekg/RgGL0SJBfmYfQs3I1YD8K6BiB31vHNEcX71GhVfxqvzfcR8GkY+xFIeTDCCBrQwggScoAMCAQICEA3HrFcF/yGZLkBDIgw6SYYwDQYJKoZIhvcNAQELBQAwYjELMAkGA1UEBhMCVVMxFTATBgNVBAoTDERpZ2lDZXJ0IEluYzEZMBcGA1UECxMQd3d3LmRpZ2ljZXJ0LmNvbTEhMB8GA1UEAxMYRGlnaUNlcnQgVHJ1c3RlZCBSb290IEc0MB4XDTI1MDUwNzAwMDAwMFoXDTM4MDExNDIzNTk1OVowaTELMAkGA1UEBhMCVVMxFzAVBgNVBAoTDkRpZ2lDZXJ0LCBJbmMuMUEwPwYDVQQDEzhEaWdpQ2VydCBUcnVzdGVkIEc0IFRpbWVTdGFtcGluZyBSU0E0MDk2IFNIQTI1NiAyMDI1IENBMTCCAiIwDQYJKoZIhvcNAQEBBQADggIPADCCAgoCggIBALR4MdMKmEFyvjxGwBysddujRmh0tFEXnU2tjQ2UtZmWgyxU7UNqEY81FzJsQqr5G7A6c+Gh/qm8Xi4aPCOo2N8S9SLrC6Kbltqn7SWCWgzbNfiR+2fkHUiljNOqnIVD/gG3SYDEAd4dg2dDGpeZGKe+42DFUF0mR/vtLa4+gKPsYfwEu7EEbkC9+0F2w4QJLVSTEG8yAR2CQWIM1iI5PHg62IVwxKSpO0XaF9DPfNBKS7Zazch8NF5vp7eaZ2CVNxpqumzTCNSOxm+SAWSuIr21Qomb+zzQWKhxKTVVgtmUPAW35xUUFREmDrMxSNlr/NsJyUXzdtFUUt4aS4CEeIY8y9IaaGBpPNXKFifinT7zL2gdFpBP9qh8SdLnEut/GcalNeJQ55IuwnKCgs+nrpuQNfVmUB5KlCX3ZA4x5HHKS+rqBvKWxdCyQEEGcbLe1b8Aw4wJkhU1JrPsFfxW1gaou30yZ46t4Y9F20HHfIY4/6vHespYMQmUiote8ladjS/nJ0+k6MvqzfpzPDOy5y6gqztiT96Fv/9bH7mQyogxG9QEPHrPV6/7umw052AkyiLA6tQbZl1KhBtTasySkuJDpsZGKdlsjg4u70EwgWbVRSX1Wd4+zoFpp4Ra+MlKM2baoD6x0VR4RjSpWM8o5a6D8bpfm4CLKczsG7ZrIGNTAgMBAAGjggFdMIIBWTASBgNVHRMBAf8ECDAGAQH/AgEAMB0GA1UdDgQWBBTvb1NK6eQGfHrK4pBW9i/USezLTjAfBgNVHSMEGDAWgBTs1+OC0nFdZEzfLmc/57qYrhwPTzAOBgNVHQ8BAf8EBAMCAYYwEwYDVR0lBAwwCgYIKwYBBQUHAwgwdwYIKwYBBQUHAQEEazBpMCQGCCsGAQUFBzABhhhodHRwOi8vb2NzcC5kaWdpY2VydC5jb20wQQYIKwYBBQUHMAKGNWh0dHA6Ly9jYWNlcnRzLmRpZ2ljZXJ0LmNvbS9EaWdpQ2VydFRydXN0ZWRSb290RzQuY3J0MEMGA1UdHwQ8MDowOKA2oDSGMmh0dHA6Ly9jcmwzLmRpZ2ljZXJ0LmNvbS9EaWdpQ2VydFRydXN0ZWRSb290RzQuY3JsMCAGA1UdIAQZMBcwCAYGZ4EMAQQCMAsGCWCGSAGG/WwHATANBgkqhkiG9w0BAQsFAAOCAgEAF877FoAc/gc9EXZxML2+C8i1NKZ/zdCHxYgaMH9Pw5tcBnPw6O6FTGNpoV2V4wzSUGvI9NAzaoQk97frPBtIj+ZLzdp+yXdhOP4hCFATuNT+ReOPK0mCefSG+tXqGpYZ3essBS3q8nL2UwM+NMvEuBd/2vmdYxDCvwzJv2sRUoKEfJ+nN57mQfQXwcAEGCvRR2qKtntujB71WPYAgwPyWLKu6RnaID/B0ba2H3LUiwDRAXx1Neq9ydOal95CHfmTnM4I+ZI2rVQfjXQA1WSjjf4J2a7jLzWGNqNX+DF0SQzHU0pTi4dBwp9nEC8EAqoxW6q17r0z0noDjs6+BFo+z7bKSBwZXTRNivYuve3L2oiKNqetRHdqfMTCW/NmKLJ9M+MtucVGyOxiDf06VXxyKkOirv6o02OoXN4bFzK0vlNMsvhlqgF2puE6FndlENSmE+9JGYxOGLS/D284NHNboDGcmWXfwXRy4kbu4QFhOm0xJuF2EZAOk5eCkhSxZON3rGlHqhpB/8MluDezooIs8CVnrpHMiD2wL40mm53+/j7tFaxYKIqL0Q4ssd8xHZnIn/7GELH3IdvG2XlM9q7WP/UwgOkw/HQtyRN62JK4S1C8uw3PdBunvAZapsiI5YKdvlarEvf8EA+8hcpSM9LHJmyrxaFtoza2zNaQ9k+5t1wxggG/MIIBuwIBATB9MGkxCzAJBgNVBAYTAlVTMRcwFQYDVQQKEw5EaWdpQ2VydCwgSW5jLjFBMD8GA1UEAxM4RGlnaUNlcnQgVHJ1c3RlZCBHNCBUaW1lU3RhbXBpbmcgUlNBNDA5NiBTSEEyNTYgMjAyNSBDQTECEAkZDcEsnIfbMv0KtVC97UswDQYJYIZIAWUDBAIBBQCggdEwGgYJKoZIhvcNAQkDMQ0GCyqGSIb3DQEJEAEEMBwGCSqGSIb3DQEJBTEPFw0yNTA3MjMxOTQ3MjRaMCsGCyqGSIb3DQEJEAIMMRwwGjAYMBYEFNeHunkpY5+4wS9KphZRdMvgpYDzMC8GCSqGSIb3DQEJBDEiBCCf73ZR7j/7EqGQyVl2dnM7bagW+6j6dviuhK01yX9tDjA3BgsqhkiG9w0BCRACLzEoMCYwJDAiBCDTI6/iX909FvJvLyWefOSJ24bS2aqweyb1mDcIYIlWeDAKBggqhkjOPQQDAgRIMEYCIQDBb+a9W1rfHkpmgt7Q6SCGCpX/ov9wKzEPNnjBOEXF9gIhAI/UytkAGzEQQQvmV0PeK5A+Ki1uze5t6uyDq/IoFdslZXJWYWxzoWhvY3NwVmFsc4FZCNgwggjUCgEAoIIIzTCCCMkGCSsGAQUFBzABAQSCCLowggi2MIGeohYEFBcpk3L/p/tYMv+y4I6w7ahQBvqtGA8yMDI1MDcyMTIxNDM1MVowczBxMEkwCQYFKw4DAhoFAAQUu99zJXvbI6LHTold3/wRhaibiwEEFFcpejJNzP7kNU7AHyRzznNTq99qAhAVjf8nrCPSuCVLTmM3Hh2egAAYDzIwMjUwNzIxMjE0MzUxWqARGA8yMDI1MDcyODIxNDM1MVowDQYJKoZIhvcNAQELBQADggIBADTCQ1p7ndqGpwNVv/g/fmUtXi4EsNEr0qD0m1h8mJ6B+FJJ4vKQLwECMzOeASyY3zOxxoceuHEvDVzkWM8AKI6QyvFrj8GpYN5VE5CK9oNcU8i1qikgTrdp4tKIH0mvcuH08SMGtWTluqCMa2q3+oT2ksRB8S1cQ4zZLK4i7zA22YOD4g2IvZPt/iRlDe1wAk7IdeN1Pa4CjTLgJHFcaKB38kfAwLx/DmW7rYrJokJ8K2HWsyVc4zuOmYm53V2NYRJ9t+qpLMx9z4GT8e95YhkhAkanGysb3D12pJiC5YQnL7f52D2PpgbnI+KIUBI0nXbSE4vC7xhzjk1Hzi9kE6JEKI0Pao2KmtuhjiesdXt7B6e0u1ehPafOahuCTTJUFJbnLmdgRJTUKpymo5ZDAJzmL2tXqyUBYRRm/2NFYB4t8/PgOdWZfAwuaBWlWR1ZU7n+obLtN8bIUObhElU5NvJNoMInSG9zQqGO/FdmIYN3V1e/bTnMFHiL88/OA4mqb/QwGHCI4uIsa23Ho798mr6HZQR3qMQhX4XSr+PtJn98dXIXV56QNoEkd5jBfasrtBSjUInDqYGDsqbsr8uMp5TvVhL/lOlxliuVR8UEeSRBMN1QpT0SlLtv5oMBQpeghW5Tt88GnZugsoHWHryZ/i1x7w+jR9RZIVmkPKEGXoNQoIIF/TCCBfkwggX1MIID3aADAgECAhRd3U1BXTJ/oHCDytT6Y2pU7OSFeDANBgkqhkiG9w0BAQsFADB1MQswCQYDVQQGEwJVUzEjMCEGA1UEChMaQWRvYmUgU3lzdGVtcyBJbmNvcnBvcmF0ZWQxHTAbBgNVBAsTFEFkb2JlIFRydXN0IFNlcnZpY2VzMSIwIAYDVQQDExlBZG9iZSBQcm9kdWN0IFNlcnZpY2VzIEczMB4XDTI1MDcxNTIwMzIwOFoXDTI1MTAxMzIwMzIwOFowejELMAkGA1UEBhMCVVMxIzAhBgNVBAoTGkFkb2JlIFN5c3RlbXMgSW5jb3Jwb3JhdGVkMUYwRAYDVQQDEz1BZG9iZSBQcm9kdWN0IFNlcnZpY2VzIEczIE9DU1AgUmVzcG9uZGVyIDIwMjUtMDctMTVUMjA6MzI6MDhaMIICIjANBgkqhkiG9w0BAQEFAAOCAg8AMIICCgKCAgEAouZGwt3VqF1Rww395YjUb8tsLlA1LeJxueTZutZA7GFuT317c5kxFLd6UYfuYLEJbupIKCbSfwqXq/l8AzkvxEUnJVIjUe+KMCnWHfAVkul1/xnHnECilP//pnxyyDYhBGyCZ8hVfHrHWtD/DalM4FcAKqchVMSCAMLzir8LyEQ6z0Rz6TpF3fue2nvZJrAyLAJhOzhAo381kDi6m9fnnaPE4laeYLoWGiOQcpy18q7401iUGHFi8PYbUP2h9ghuPMKnj02QjIV/3uzlfsZo0/frj7kEk4N9OGhetmdvwacPyhAw/49A0do6i0F2pbh2hbaonUBhwu3lSlJbZXi2U6h+pysAB+EJMDMfRDT9T/wOQhMcHn/RVnuXEZb2LavXremR5z0TT/7k4W0JPnzm7e/4vRm+/k/PEqtWg0N+jAls3oUE9lZGKbXWz2xOWxtVd1Cpkit3q8pg3e98c0PXE49IsZ34YPMUe+t2OCZuef7v7T7W1SoLj7z4OCtWuGR5d4ux4h/7Wq86CU5aXYr1zj2n5R/x7UDuJd9JAKXIGAwN/TUgUD5QSdAbHXtMQ4TT7StS6IZ2SbXipnUxL0xl8qTzid6B6w8pbROnSjr/4ge3+r5I5m8fQSj/eEUt7buAntFNd+PRzVFC4EzmMv9t1tLY3yKR/ejHEQLFDNzKqFMCAwEAAaN4MHYwHQYDVR0OBBYEFBcpk3L/p/tYMv+y4I6w7ahQBvqtMB8GA1UdIwQYMBaAFFcpejJNzP7kNU7AHyRzznNTq99qMA4GA1UdDwEB/wQEAwIHgDATBgNVHSUEDDAKBggrBgEFBQcDCTAPBgkrBgEFBQcwAQUEAgUAMA0GCSqGSIb3DQEBCwUAA4ICAQBMdONdOF8lJ9vdT7rRMPoYxXjcjZnftuVFTp7swh0uqSByZIVXmG7Xp1Y1UUPA1HzPkaDyRVygp/oICVsZZTD0cRAB7/b0yD0VcKWMx/Or9PTXHcnOWT6aNTO6n7sQx69E4fezon7b2Ti0XIZ2xs1CCy8ZgFPOFwWT52Qc0LWsurnTdOjqlX07KVBHcYISbuMBuLLuOdcEClfVbUnJPihGZc42zUwDN5/qd+zl6ybDXXXmAjUTo6DZcX9nV6qgdgOHbpL6tb0TZnKlAIwheGRBWkLDh3gvZvfF2ttgEIdgep8RJWJhJdb2J9BF8DVOC5RXXdXlnFgMnHLZeoUmFs+aWZTl5bfdcn3EPrvHJUSB4s+9qZvqKPXw3HkOWi/efs4Q5Ack22XO2AiVbglliY+9I1+c6nz3faTm3QDz/53mdfl3jEwBZe7Rgk5PzG0rEgg8adjm/aH+cPo4qFPHiti8bGO0cQFOEhAPDodNrn8aecOxXFtAsS8zEJeuiKWxa7I2Br0XJUOCgGYh1vt9/XMw4QEdsZt/W1vFNzpeEy4XNr3LddgNVUPchatTyj8JWGIioXWf+fh0m64ViRX55s+FUOLGiTegGCR/ALgAN6u97qcW90YQpyFdOTrL6oWxBg7rhgSC3bg6LI46ZYMK7kVFMfekdO3Cr5/codBbcDntN2NwYWRZCncAAAAAAAAAAAAAAAAAAAAAAAAAAAAAAAAAAAAAAAAAAAAAAAAAAAAAAAAAAAAAAAAAAAAAAAAAAAAAAAAAAAAAAAAAAAAAAAAAAAAAAAAAAAAAAAAAAAAAAAAAAAAAAAAAAAAAAAAAAAAAAAAAAAAAAAAAAAAAAAAAAAAAAAAAAAAAAAAAAAAAAAAAAAAAAAAAAAAAAAAAAAAAAAAAAAAAAAAAAAAAAAAAAAAAAAAAAAAAAAAAAAAAAAAAAAAAAAAAAAAAAAAAAAAAAAAAAAAAAAAAAAAAAAAAAAAAAAAAAAAAAAAAAAAAAAAAAAAAAAAAAAAAAAAAAAAAAAAAAAAAAAAAAAAAAAAAAAAAAAAAAAAAAAAAAAAAAAAAAAAAAAAAAAAAAAAAAAAAAAAAAAAAAAAAAAAAAAAAAAAAAAAAAAAAAAAAAAAAAAAAAAAAAAAAAAAAAAAAAAAAAAAAAAAAAAAAAAAAAAAAAAAAAAAAAAAAAAAAAAAAAAAAAAAAAAAAAAAAAAAAAAAAAAAAAAAAAAAAAAAAAAAAAAAAAAAAAAAAAAAAAAAAAAAAAAAAAAAAAAAAAAAAAAAAAAAAAAAAAAAAAAAAAAAAAAAAAAAAAAAAAAAAAAAAAAAAAAAAAAAAAAAAAAAAAAAAAAAAAAAAAAAAAAAAAAAAAAAAAAAAAAAAAAAAAAAAAAAAAAAAAAAAAAAAAAAAAAAAAAAAAAAAAAAAAAAAAAAAAAAAAAAAAAAAAAAAAAAAAAAAAAAAAAAAAAAAAAAAAAAAAAAAAAAAAAAAAAAAAAAAAAAAAAAAAAAAAAAAAAAAAAAAAAAAAAAAAAAAAAAAAAAAAAAAAAAAAAAAAAAAAAAAAAAAAAAAAAAAAAAAAAAAAAAAAAAAAAAAAAAAAAAAAAAAAAAAAAAAAAAAAAAAAAAAAAAAAAAAAAAAAAAAAAAAAAAAAAAAAAAAAAAAAAAAAAAAAAAAAAAAAAAAAAAAAAAAAAAAAAAAAAAAAAAAAAAAAAAAAAAAAAAAAAAAAAAAAAAAAAAAAAAAAAAAAAAAAAAAAAAAAAAAAAAAAAAAAAAAAAAAAAAAAAAAAAAAAAAAAAAAAAAAAAAAAAAAAAAAAAAAAAAAAAAAAAAAAAAAAAAAAAAAAAAAAAAAAAAAAAAAAAAAAAAAAAAAAAAAAAAAAAAAAAAAAAAAAAAAAAAAAAAAAAAAAAAAAAAAAAAAAAAAAAAAAAAAAAAAAAAAAAAAAAAAAAAAAAAAAAAAAAAAAAAAAAAAAAAAAAAAAAAAAAAAAAAAAAAAAAAAAAAAAAAAAAAAAAAAAAAAAAAAAAAAAAAAAAAAAAAAAAAAAAAAAAAAAAAAAAAAAAAAAAAAAAAAAAAAAAAAAAAAAAAAAAAAAAAAAAAAAAAAAAAAAAAAAAAAAAAAAAAAAAAAAAAAAAAAAAAAAAAAAAAAAAAAAAAAAAAAAAAAAAAAAAAAAAAAAAAAAAAAAAAAAAAAAAAAAAAAAAAAAAAAAAAAAAAAAAAAAAAAAAAAAAAAAAAAAAAAAAAAAAAAAAAAAAAAAAAAAAAAAAAAAAAAAAAAAAAAAAAAAAAAAAAAAAAAAAAAAAAAAAAAAAAAAAAAAAAAAAAAAAAAAAAAAAAAAAAAAAAAAAAAAAAAAAAAAAAAAAAAAAAAAAAAAAAAAAAAAAAAAAAAAAAAAAAAAAAAAAAAAAAAAAAAAAAAAAAAAAAAAAAAAAAAAAAAAAAAAAAAAAAAAAAAAAAAAAAAAAAAAAAAAAAAAAAAAAAAAAAAAAAAAAAAAAAAAAAAAAAAAAAAAAAAAAAAAAAAAAAAAAAAAAAAAAAAAAAAAAAAAAAAAAAAAAAAAAAAAAAAAAAAAAAAAAAAAAAAAAAAAAAAAAAAAAAAAAAAAAAAAAAAAAAAAAAAAAAAAAAAAAAAAAAAAAAAAAAAAAAAAAAAAAAAAAAAAAAAAAAAAAAAAAAAAAAAAAAAAAAAAAAAAAAAAAAAAAAAAAAAAAAAAAAAAAAAAAAAAAAAAAAAAAAAAAAAAAAAAAAAAAAAAAAAAAAAAAAAAAAAAAAAAAAAAAAAAAAAAAAAAAAAAAAAAAAAAAAAAAAAAAAAAAAAAAAAAAAAAAAAAAAAAAAAAAAAAAAAAAAAAAAAAAAAAAAAAAAAAAAAAAAAAAAAAAAAAAAAAAAAAAAAAAAAAAAAAAAAAAAAAAAAAAAAAAAAAAAAAAAAAAAAAAAAAAAAAAAAAAAAAAAAAAAAAAAAAAAAAAAAAAAAAAAAAAAAAAAAAAAAAAAAAAAAAAAAAAAAAAAAAAAAAAAAAAAAAAAAAAAAAAAAAAAAAAAAAAAAAAAAAAAAAAAAAAAAAAAAAAAAAAAAAAAAAAAAAAAAAAAAAAAAAAAAAAAAAAAAAAAAAAAAAAAAAAAAAAAAAAAAAAAAAAAAAAAAAAAAAAAAAAAAAAAAAAAAAAAAAAAAAAAAAAAAAAAAAAAAAAAAAAAAAAAAAAAAAAAAAAAAAAAAAAAAAAAAAAAAAAAAAAAAAAAAAAAAAAAAAAAAAAAAAAAAAAAAAAAAAAAAAAAAAAAAAAAAAAAAAAAAAAAAAAAAAAAAAAAAAAAAAAAAAAAAAAAAAAAAAAAAAAAAAAAAAAAAAAAAAAAAAAAAAAAAAAAAAAAAAAAAAAAAAAAAAAAAAAAAAAAAAAAAAAAAAAAAAAAAAAAAAAAAAAAAAAAAAAAAAAAAAAAAAAAAAAAAAAAAAAAAAAAAAAAAAAAAAAAAAAAAAAAAAAAAAAAAAAAAAAAAAAAAAAAAAAAAAAAAAAAAAAAAAAAAAAAAAAAAAAAAAAAAAAAAAAAAAAAAAAAAAAAAAAAAAAAAAAAAAAAAAAAAAAAAAAAAAAAAAAAAAAAAAAAAAAAAAAAAAAAAAAAAAAAAAAAAAAAAAAAAAAAAAAAAAAAAAAAAAAAAAAAAAAAAAAAAAAAAAAAAAAAAAAAAAAAAAAAAAAAAAAAAAAAAAAAAAAAAAAAAAAAAAAAAAAAAAAAAAAAAAAAAAAAAAAAAAAAAAAAAAAAAAAAAAAAAAAAAAAAAAAAAAAAAAAAAAAAAAAAAAAAAAAAAAAAAAAAAAAAAAAAAAAAAAAAAAAAAAAAAAAAAAAAAAAAAAAAAAAAAAAAAAAAAAAAAAAAAAAAAAAAAAAAAAAAAAAAAAAAAAAAAAAAAAAAAAAAAAAAAAAAAAAAAAAAAAAAAAAAAAAAAAAAAAAAAAAAAAAAAAAAAAAAAAAAAAAAAAAAAAAAAAAAAAAAAAAAAAAAAAAAAAAAAAAAAAAAAAAAAAAAAAAAAAAAAAAAAAAAAAAAAAAAAAAAAAAAAAAAAAAAAAAAAAAAAAAAAAAAAAAAAAAAAAAAAAAAAAAAAAAAAAAAAAAAAAAAAAAAAAAAAAAAAAAAAAAAAAAAAAAAAAAAAAAAAAAAAAAAAAAAAAAAAAAAAAAAAAAAAAAAAAAAAAAAAAAAAAAAAAAAAAAAAAAAAAAAAAAAAAAAAAAAAAAAAAAAAAAAAAAAAAAAAAAAAAAAAAAAAAAAAAAAAAAAAAAAAAAAAAAAAAAD2WQEAFt+vp/VMTeY7v0xHdpc/pL/pyJRbE+/EyQLesTryyqQpOc2fOg9eT6w4usyM08/ECdMGtAMDc12BB+TQsCsRlmLF1ExCbGf2c8NaMb2l5OMS9SbkfdvQIPTqW1RA6h7irsuR76odwNutztQLrQcuY2aK/XqtBYsSbdBY75uQYw3ZneFuB7Ukz6bcaXGUnXvKeRFDEycH6LkuVCAt71tA6vrbmDS7p+5htodLBOxMwRKH9fjwU0XkrfasFFnrJZ8cuzsbfRxLoaFlgm8A67KWbOVqs7DO4Bu4rGfh6It9hWBsEZuJXCUCVmWJR59orMY0TnQp2hnv1sOf2GdGavHRRQ==</c2pa:manifest></metadata>
  <!-- Generator: Adobe Illustrator 29.6.1, SVG Export Plug-In . SVG Version: 2.1.1 Build 9)  -->
  <defs>
    <style>
      .st0 {
        fill: url(#linear-gradient1);
      }

      .st1, .st2, .st3, .st4, .st5 {
        display: none;
      }

      .st1, .st6 {
        fill: #f6f2ea;
      }

      .st7 {
        fill: url(#linear-gradient);
      }

      .st2 {
        fill: #f6f2e9;
      }

      .st8 {
        fill: #7c5fd6;
      }

      .st3 {
        fill: #001928;
      }

      .st4 {
        fill: #001a29;
      }

      .st5 {
        fill: #000003;
      }
    </style>
    <linearGradient id="linear-gradient" x1="842.58" y1="554.08" x2="323.34" y2="118.81" gradientTransform="translate(0 1026) scale(1 -1)" gradientUnits="userSpaceOnUse">
      <stop offset="0" stop-color="#0053da"/>
      <stop offset="1" stop-color="#001eb4"/>
    </linearGradient>
    <linearGradient id="linear-gradient1" x1="252.53" y1="378" x2="194.18" y2="329.11" gradientTransform="translate(0 1026) scale(1 -1)" gradientUnits="userSpaceOnUse">
      <stop offset="0" stop-color="#0053da"/>
      <stop offset="0" stop-color="#001eb4"/>
    </linearGradient>
  </defs>
  <path class="st2" d="M1024,0v1024H0V0h1024ZM547,644c94.13-3.19,208.86-87.4,186-191.5-28.39-129.28-233.11-83.89-222,23,4.09,39.41,52.66,62.6,79,28-48.51-19.59-8.61-76.09,33.5-50.5,40.44,24.58,14.37,85.27-16,108-87.29,65.34-203.42-25.21-162.5-129.5,25.86-65.9,104.57-83.35,167-92.5,151.02,4.2,112.26-97.02,31.5-164-43.37-35.97-143.01-76.54-198-55-21.2,8.3-6.68,26.6-7,43-182.22,33.62-264.12,252.09-139.5,394.5,62.92,71.91,154.69,94.52,248,86.5ZM719.5,664c-19.4,3.37-15.22,36.27,8,33,20.15-2.84,17.63-37.45-8-33ZM218.5,666c-6.87,1.19-13.39,8.62-16.5,14.5-11.45,21.65-43.93,112.29-50,137-1.16,4.72-4.79,16.53,1.5,18.5,3.3,1.03,22.05.04,25-2,5.51-3.82,13.5-37.77,16-39h64c6.16,8.92,10.72,38.54,22,41,8.11,1.77,25.84,1.71,23.5-10.5-21.72-42.62-33.57-104.44-56-145-6.4-11.57-16.2-16.8-29.5-14.5ZM608.5,666c-2.71.49-7.72,3.52-8.5,6.5v158c1.91,8.58,26.19,6.81,28,1v-158c-3.12-7.03-12.64-8.75-19.5-7.5ZM658,669c-2.93,1.69-2.53.55-4,4.5v155c1.73,8.02,13.66,8.45,20,7.5,3.27-.49,6.83-1.83,9-4.5v-159c-2.04-7.64-19.89-6.44-25-3.5ZM374.5,709c-10.34,1.02-21.11,5.96-30,11,1.66-16.26-20.33-10.47-25.5-1.5v157c2.06,6.6,27.9,6.43,30-1,1.63-5.78-1.7-42.79.5-44.5,39.7,25.34,87.91-.76,91.5-47.5,3.3-42.94-20.49-78.01-66.5-73.5ZM509.5,709c-70.29,7.55-71.76,116.82-7,129,102.71,19.32,103-139.32,7-129ZM804.5,709c-11.83.75-33.33,3.29-36.5,16.5-5.96,24.85,19.5,11.59,30.5,10.5,11.95-1.18,47.78,4.75,39.5,23.5-1.04,2.36-37.9-2.2-44.5-1.5-23.96,2.55-38.84,24.19-36.5,47.5,3.65,36.35,58.41,44.15,80.5,20.5,1.81,13.39,20.2,12.42,28.5,6.5-4.71-55.93,22.87-128.88-61.5-123.5ZM719.5,711c-4.83.64-9.86,3.35-10.5,8.5l1,112c1.95,5.82,24.32,6.56,28,0v-114c-1.61-6.25-13.29-7.19-18.5-6.5Z"/>
  <path class="st8" d="M742.52,444.05c-96.53-2.68-192.49-47.31-288.93-38.52-108.62,9.89-213.24,96.22-232.06,205.46-6.84,39.7-5.38,83.69,3.67,122.91,42.47,184.15,218.69,275.76,398.08,269.67-171.18,14.71-339.53-26.77-454.95-158.68C-60.29,583.63,89.95,182.85,424.23,121.18c.59-30.09-26.05-63.66,12.84-78.88,100.88-39.51,283.67,34.91,363.23,100.9,148.15,122.87,219.26,308.56-57.79,300.86ZM682.9,174.38c-89.27,13.17-70.19,163.69,31.19,143.09,85.07-17.28,69.99-158.02-31.19-143.09Z"/>
  <path class="st6" d="M682.77,173.76c102.04-15.06,117.25,126.89,31.45,144.32-102.25,20.78-121.49-131.04-31.45-144.32Z"/>
  <path class="st7" d="M742.52,444.05c-114.53,16.79-258.92,48.8-306.36,169.69-75.07,191.32,137.97,357.43,298.1,237.57,55.71-41.7,103.54-153.03,29.35-198.13-77.25-46.94-150.45,56.7-61.46,92.64-48.32,63.47-137.42,20.93-144.92-51.37-20.38-196.09,355.18-279.36,407.26-42.19,41.94,190.97-168.53,345.45-341.22,351.31-179.4,6.09-355.62-85.52-398.08-269.67l-3.67-122.91c18.82-109.24,123.44-195.58,232.06-205.46,96.44-8.79,192.4,35.85,288.93,38.52Z"/>
  <path class="st0" d="M225.19,733.9c-9.04-39.22-10.51-83.21-3.67-122.91l3.67,122.91Z"/>
  <path class="st3" d="M719.5,664c25.63-4.45,28.15,30.16,8,33-23.22,3.27-27.4-29.63-8-33Z"/>
  <path class="st3" d="M218.5,666c13.3-2.3,23.1,2.93,29.5,14.5,22.43,40.56,34.28,102.38,56,145,2.34,12.21-15.39,12.27-23.5,10.5-11.28-2.46-15.84-32.08-22-41h-64c-2.5,1.23-10.49,35.18-16,39-2.95,2.04-21.7,3.03-25,2-6.29-1.97-2.66-13.78-1.5-18.5,6.07-24.71,38.55-115.35,50-137,3.11-5.88,9.63-13.31,16.5-14.5ZM224.5,702l-22.5,66.5,46.5,1.5-24-68Z"/>
  <path class="st4" d="M608.5,666c6.86-1.25,16.38.47,19.5,7.5v158c-1.81,5.81-26.09,7.58-28-1v-158c.78-2.98,5.79-6.01,8.5-6.5Z"/>
  <path class="st4" d="M674,836c-5.98-2.2-13.6.18-18-5.5l2-161.5c5.11-2.94,22.96-4.14,25,3.5v159c-2.17,2.67-5.73,4.01-9,4.5Z"/>
  <path class="st5" d="M658,669l-2,161.5c4.4,5.68,12.02,3.3,18,5.5-6.34.95-18.27.52-20-7.5v-155c1.47-3.95,1.07-2.81,4-4.5Z"/>
  <path class="st2" d="M224.5,702l24,68-46.5-1.5,22.5-66.5Z"/>
  <path class="st4" d="M374.5,709c46.01-4.51,69.8,30.56,66.5,73.5-3.59,46.74-51.8,72.84-91.5,47.5-2.2,1.71,1.13,38.72-.5,44.5-2.1,7.43-27.94,7.6-30,1v-157c5.17-8.97,27.16-14.76,25.5,1.5,8.89-5.04,19.66-9.98,30-11ZM371.5,736c-4.96.91-21.28,12.7-22.5,17.5-.53,2.09-.55,39.97,0,42,.88,3.26,13.76,14.17,17.5,15.5,54.18,19.2,62.58-85.52,5-75Z"/>
  <path class="st3" d="M509.5,709c96-10.32,95.71,148.32-7,129-64.76-12.18-63.29-121.45,7-129ZM510.5,735c-35.42,5.31-36.82,87.07,16,78,34.16-5.87,36.12-85.81-16-78Z"/>
  <path class="st3" d="M804.5,709c84.37-5.38,56.79,67.57,61.5,123.5-8.3,5.92-26.69,6.89-28.5-6.5-22.09,23.65-76.85,15.85-80.5-20.5-2.34-23.31,12.54-44.95,36.5-47.5,6.6-.7,43.46,3.86,44.5,1.5,8.28-18.75-27.55-24.68-39.5-23.5-11,1.09-36.46,14.35-30.5-10.5,3.17-13.21,24.67-15.75,36.5-16.5ZM802.5,780c-15.78,2.91-22.26,24.96-7,32,20.49,9.46,49.29-6.63,41-31-10.52,1.2-23.83-2.87-34-1Z"/>
  <path class="st4" d="M719.5,711c5.21-.69,16.89.25,18.5,6.5v114c-3.68,6.56-26.05,5.82-28,0l-1-112c.64-5.15,5.67-7.86,10.5-8.5Z"/>
  <path class="st2" d="M510.5,735c52.12-7.81,50.16,72.13,16,78-52.82,9.07-51.42-72.69-16-78Z"/>
  <path class="st1" d="M371.5,736c57.58-10.52,49.18,94.2-5,75-3.74-1.33-16.62-12.24-17.5-15.5-.55-2.03-.53-39.91,0-42,1.22-4.8,17.54-16.59,22.5-17.5Z"/>
  <path class="st1" d="M802.5,780c10.17-1.87,23.48,2.2,34,1,8.29,24.37-20.51,40.46-41,31-15.26-7.04-8.78-29.09,7-32Z"/>
</svg>