<?plantuml 1.2026.2?><svg xmlns="http://www.w3.org/2000/svg" xmlns:xlink="http://www.w3.org/1999/xlink" contentStyleType="text/css" data-diagram-type="DESCRIPTION" height="1223px" preserveAspectRatio="none" style="width:2556px;height:1223px;background:#FFFFFF;" version="1.1" viewBox="0 0 2556 1223" width="2556px" zoomAndPan="magnify"><title>C4 Container &#8212; 9 Crates Workspace &#8212; Apollia OS</title><defs><linearGradient id="g1p0f1pc4xzsku0" x1="0%" x2="100%" y1="0%" y2="100%"><stop offset="0%" stop-color="#3A3A3A"/><stop offset="100%" stop-color="#FFFFFF"/></linearGradient></defs><g><g class="title" data-source-line="8"><text fill="#000000" font-family="'JetBrains Mono'" font-size="22" font-weight="bold" lengthAdjust="spacing" textLength="562.3857" x="992.4435" y="36.2695">C4 Container &#8212; 9 Crates Workspace &#8212; Apollia OS</text></g><!--cluster workspace--><g class="cluster" data-qualified-name="workspace" data-source-line="13" id="ent0004"><rect fill="#1A1A2E" height="876.53" rx="2.5" ry="2.5" style="stroke:#000000;stroke-width:1;" width="2240" x="90" y="194.0402"/><text fill="#000000" font-family="'JetBrains Mono'" font-size="12" font-weight="bold" lengthAdjust="spacing" textLength="134.625" x="1142.6875" y="207.6417">Apollia OS Workspace</text></g><!--cluster runtime--><g class="cluster" data-qualified-name="workspace.runtime" data-source-line="17" id="ent0006"><rect fill="#1A1A2E" height="315.53" rx="2.5" ry="2.5" style="stroke:#000000;stroke-width:1;" width="592" x="122" y="472.4402"/><text fill="#000000" font-family="'JetBrains Mono'" font-size="12" font-weight="bold" lengthAdjust="spacing" textLength="97.7461" x="369.127" y="486.0417">apollia-runtime</text><text fill="#000000" font-family="'JetBrains Mono'" font-size="12" font-weight="bold" lengthAdjust="spacing" textLength="93.0234" x="371.4883" y="500.1745">(Runtime Core)</text></g><!--cluster oria--><g class="cluster" data-qualified-name="workspace.oria" data-source-line="26" id="ent0013"><rect fill="#1A1A2E" height="373.74" rx="2.5" ry="2.5" style="stroke:#000000;stroke-width:1;" width="356" x="754" y="657.7702"/><text fill="#000000" font-family="'JetBrains Mono'" font-size="12" font-weight="bold" lengthAdjust="spacing" textLength="73.1719" x="895.4141" y="671.3717">apollia-oria</text><text fill="#000000" font-family="'JetBrains Mono'" font-size="12" font-weight="bold" lengthAdjust="spacing" textLength="85.6406" x="889.1797" y="685.5045">(ORIA Engine)</text></g><!--cluster tools--><g class="cluster" data-qualified-name="workspace.tools" data-source-line="32" id="ent0017"><rect fill="#1A1A2E" height="151.4" rx="2.5" ry="2.5" style="stroke:#000000;stroke-width:1;" width="346" x="1412" y="887.1702"/><text fill="#000000" font-family="'JetBrains Mono'" font-size="12" font-weight="bold" lengthAdjust="spacing" textLength="79.9746" x="1545.0127" y="900.7717">apollia-tools</text><text fill="#000000" font-family="'JetBrains Mono'" font-size="12" font-weight="bold" lengthAdjust="spacing" textLength="91.5879" x="1539.2061" y="914.9045">(Tool Registry)</text></g><!--cluster memory--><g class="cluster" data-qualified-name="workspace.memory" data-source-line="37" id="ent0020"><rect fill="#2A3A4A" height="151.4" rx="2.5" ry="2.5" style="stroke:#000000;stroke-width:1;" width="222" x="1150" y="887.1702"/><text fill="#000000" font-family="'JetBrains Mono'" font-size="12" font-weight="bold" lengthAdjust="spacing" textLength="99.5156" x="1211.2422" y="900.7717">apollia-memory</text><text fill="#000000" font-family="'JetBrains Mono'" font-size="12" font-weight="bold" lengthAdjust="spacing" textLength="104.3438" x="1208.8281" y="914.9045">(Memory Engine)</text></g><!--cluster aip--><g class="cluster" data-qualified-name="workspace.aip" data-source-line="41" id="ent0022"><rect fill="#1A1A2E" height="165.53" rx="2.5" ry="2.5" style="stroke:#000000;stroke-width:1;" width="205" x="2038" y="643.6402"/><text fill="#000000" font-family="'JetBrains Mono'" font-size="12" font-weight="bold" lengthAdjust="spacing" textLength="68.0039" x="2106.498" y="657.2417">apollia-aip</text><text fill="#000000" font-family="'JetBrains Mono'" font-size="12" font-weight="bold" lengthAdjust="spacing" textLength="84.8145" x="2098.0928" y="671.3745">(PyO3 Bridge)</text></g><!--cluster llm--><g class="cluster" data-qualified-name="workspace.llm" data-source-line="45" id="ent0024"><rect fill="#4A3728" height="151.4" rx="2.5" ry="2.5" style="stroke:#000000;stroke-width:1;" width="500" x="1798" y="887.1702"/><text fill="#000000" font-family="'JetBrains Mono'" font-size="12" font-weight="bold" lengthAdjust="spacing" textLength="68.5371" x="2013.7314" y="900.7717">apollia-llm</text><text fill="#000000" font-family="'JetBrains Mono'" font-size="12" font-weight="bold" lengthAdjust="spacing" textLength="79.5176" x="2008.2412" y="914.9045">(LLM Engine)</text></g><!--cluster triggers--><g class="cluster" data-qualified-name="workspace.triggers" data-source-line="50" id="ent0027"><rect fill="#1A1A2E" height="151.4" rx="2.5" ry="2.5" style="stroke:#000000;stroke-width:1;" width="574" x="122" y="243.0402"/><text fill="#000000" font-family="'JetBrains Mono'" font-size="12" font-weight="bold" lengthAdjust="spacing" textLength="98.4199" x="359.79" y="256.6417">apollia-triggers</text><text fill="#000000" font-family="'JetBrains Mono'" font-size="12" font-weight="bold" lengthAdjust="spacing" textLength="107.4082" x="355.2959" y="270.7745">(Triggers Engine)</text></g><!--cluster core--><g class="cluster" data-qualified-name="workspace.core" data-source-line="55" id="ent0030"><rect fill="#1A1A2E" height="149.53" rx="2.5" ry="2.5" style="stroke:#000000;stroke-width:1;" width="246" x="728" y="243.9802"/><text fill="#000000" font-family="'JetBrains Mono'" font-size="12" font-weight="bold" lengthAdjust="spacing" textLength="75.6328" x="813.1836" y="257.5817">apollia-core</text><text fill="#000000" font-family="'JetBrains Mono'" font-size="12" font-weight="bold" lengthAdjust="spacing" textLength="100.5879" x="800.7061" y="271.7145">(types partag&#233;s)</text></g><!--entity cli--><g class="entity" data-qualified-name="workspace.cli" data-source-line="15" id="ent0005"><rect fill="#1A1A2E" height="48.2656" rx="2.5" ry="2.5" style="stroke:#000000;stroke-width:1;" width="113.1523" x="993.42" y="310.1102"/><text fill="#000000" font-family="'JetBrains Mono'" font-size="12" lengthAdjust="spacing" textLength="58.6113" x="1003.42" y="331.7117">apollia-cli</text><text fill="#000000" font-family="'JetBrains Mono'" font-size="12" lengthAdjust="spacing" textLength="93.1523" x="1003.42" y="345.8445">(binaire clap v4)</text></g><!--entity sup--><g class="entity" data-qualified-name="workspace.runtime.sup" data-source-line="18" id="ent0007"><rect fill="#FFFFFF" height="44.1328" rx="2.5" ry="2.5" style="stroke:#000000;stroke-width:1;" width="101.1367" x="178.43" y="527.4402"/><rect fill="#FFFFFF" height="10" style="stroke:#000000;stroke-width:1;" width="15" x="259.5667" y="532.4402"/><rect fill="#FFFFFF" height="2" style="stroke:#000000;stroke-width:1;" width="4" x="257.5667" y="534.4402"/><rect fill="#FFFFFF" height="2" style="stroke:#000000;stroke-width:1;" width="4" x="257.5667" y="538.4402"/><text fill="#000000" font-family="'JetBrains Mono'" font-size="12" lengthAdjust="spacing" textLength="61.1367" x="193.43" y="559.0417">Supervisor</text></g><!--entity reg--><g class="entity" data-qualified-name="workspace.runtime.reg" data-source-line="19" id="ent0008"><rect fill="#FFFFFF" height="44.1328" rx="2.5" ry="2.5" style="stroke:#000000;stroke-width:1;" width="121.3926" x="314.3" y="527.4402"/><rect fill="#FFFFFF" height="10" style="stroke:#000000;stroke-width:1;" width="15" x="415.6926" y="532.4402"/><rect fill="#FFFFFF" height="2" style="stroke:#000000;stroke-width:1;" width="4" x="413.6926" y="534.4402"/><rect fill="#FFFFFF" height="2" style="stroke:#000000;stroke-width:1;" width="4" x="413.6926" y="538.4402"/><text fill="#000000" font-family="'JetBrains Mono'" font-size="12" lengthAdjust="spacing" textLength="81.3926" x="329.3" y="559.0417">AgentRegistry</text></g><!--entity router--><g class="entity" data-qualified-name="workspace.runtime.router" data-source-line="20" id="ent0009"><rect fill="#FFFFFF" height="44.1328" rx="2.5" ry="2.5" style="stroke:#000000;stroke-width:1;" width="105.8359" x="471.08" y="527.4402"/><rect fill="#FFFFFF" height="10" style="stroke:#000000;stroke-width:1;" width="15" x="556.9159" y="532.4402"/><rect fill="#FFFFFF" height="2" style="stroke:#000000;stroke-width:1;" width="4" x="554.9159" y="534.4402"/><rect fill="#FFFFFF" height="2" style="stroke:#000000;stroke-width:1;" width="4" x="554.9159" y="538.4402"/><text fill="#000000" font-family="'JetBrains Mono'" font-size="12" lengthAdjust="spacing" textLength="65.8359" x="486.08" y="559.0417">TaskRouter</text></g><!--entity coord--><g class="entity" data-qualified-name="workspace.runtime.coord" data-source-line="21" id="ent0010"><rect fill="#FFFFFF" height="44.1328" rx="2.5" ry="2.5" style="stroke:#000000;stroke-width:1;" width="166.7383" x="145.63" y="719.8402"/><rect fill="#FFFFFF" height="10" style="stroke:#000000;stroke-width:1;" width="15" x="292.3683" y="724.8402"/><rect fill="#FFFFFF" height="2" style="stroke:#000000;stroke-width:1;" width="4" x="290.3683" y="726.8402"/><rect fill="#FFFFFF" height="2" style="stroke:#000000;stroke-width:1;" width="4" x="290.3683" y="730.8402"/><text fill="#000000" font-family="'JetBrains Mono'" font-size="12" lengthAdjust="spacing" textLength="126.7383" x="160.63" y="751.4417">ExecutionCoordinator</text></g><!--entity api--><g class="entity" data-qualified-name="workspace.runtime.api" data-source-line="22" id="ent0011"><rect fill="#FFFFFF" height="44.1328" rx="2.5" ry="2.5" style="stroke:#000000;stroke-width:1;" width="138.4727" x="347.76" y="719.8402"/><rect fill="#FFFFFF" height="10" style="stroke:#000000;stroke-width:1;" width="15" x="466.2327" y="724.8402"/><rect fill="#FFFFFF" height="2" style="stroke:#000000;stroke-width:1;" width="4" x="464.2327" y="726.8402"/><rect fill="#FFFFFF" height="2" style="stroke:#000000;stroke-width:1;" width="4" x="464.2327" y="730.8402"/><text fill="#000000" font-family="'JetBrains Mono'" font-size="12" lengthAdjust="spacing" textLength="98.4727" x="362.76" y="751.4417">APIServer (axum)</text></g><!--entity bus--><g class="entity" data-qualified-name="workspace.runtime.bus" data-source-line="23" id="ent0012"><rect fill="#FFFFFF" height="44.1328" rx="2.5" ry="2.5" style="stroke:#000000;stroke-width:1;" width="160.7969" x="521.6" y="719.8402"/><rect fill="#FFFFFF" height="10" style="stroke:#000000;stroke-width:1;" width="15" x="662.3969" y="724.8402"/><rect fill="#FFFFFF" height="2" style="stroke:#000000;stroke-width:1;" width="4" x="660.3969" y="726.8402"/><rect fill="#FFFFFF" height="2" style="stroke:#000000;stroke-width:1;" width="4" x="660.3969" y="730.8402"/><text fill="#000000" font-family="'JetBrains Mono'" font-size="12" lengthAdjust="spacing" textLength="120.7969" x="536.6" y="751.4417">EventBus (broadcast)</text></g><!--entity obs--><g class="entity" data-qualified-name="workspace.oria.obs" data-source-line="27" id="ent0014"><rect fill="#FFFFFF" height="58.2656" rx="2.5" ry="2.5" style="stroke:#000000;stroke-width:1;" width="125.6465" x="778.18" y="712.7702"/><rect fill="#FFFFFF" height="10" style="stroke:#000000;stroke-width:1;" width="15" x="883.8265" y="717.7702"/><rect fill="#FFFFFF" height="2" style="stroke:#000000;stroke-width:1;" width="4" x="881.8265" y="719.7702"/><rect fill="#FFFFFF" height="2" style="stroke:#000000;stroke-width:1;" width="4" x="881.8265" y="723.7702"/><text fill="#000000" font-family="'JetBrains Mono'" font-size="12" lengthAdjust="spacing" textLength="52.3945" x="793.18" y="744.3717">Observer</text><text fill="#000000" font-family="'JetBrains Mono'" font-size="12" lengthAdjust="spacing" textLength="85.6465" x="793.18" y="758.5045">ContextBundle</text></g><!--entity reasoner--><g class="entity" data-qualified-name="workspace.oria.reasoner" data-source-line="28" id="ent0015"><rect fill="#FFFFFF" height="58.2656" rx="2.5" ry="2.5" style="stroke:#000000;stroke-width:1;" width="128.166" x="938.92" y="712.7702"/><rect fill="#FFFFFF" height="10" style="stroke:#000000;stroke-width:1;" width="15" x="1047.086" y="717.7702"/><rect fill="#FFFFFF" height="2" style="stroke:#000000;stroke-width:1;" width="4" x="1045.086" y="719.7702"/><rect fill="#FFFFFF" height="2" style="stroke:#000000;stroke-width:1;" width="4" x="1045.086" y="723.7702"/><text fill="#000000" font-family="'JetBrains Mono'" font-size="12" lengthAdjust="spacing" textLength="88.166" x="953.92" y="744.3717">Reasoner (LLM)</text><text fill="#000000" font-family="'JetBrains Mono'" font-size="12" lengthAdjust="spacing" textLength="81.0938" x="953.92" y="758.5045">ExecutionPlan</text></g><!--entity budget--><g class="entity" data-qualified-name="workspace.oria.budget" data-source-line="29" id="ent0016"><rect fill="#FFFFFF" height="58.2656" rx="2.5" ry="2.5" style="stroke:#000000;stroke-width:1;" width="128.6523" x="777.67" y="949.2402"/><rect fill="#FFFFFF" height="10" style="stroke:#000000;stroke-width:1;" width="15" x="886.3223" y="954.2402"/><rect fill="#FFFFFF" height="2" style="stroke:#000000;stroke-width:1;" width="4" x="884.3223" y="956.2402"/><rect fill="#FFFFFF" height="2" style="stroke:#000000;stroke-width:1;" width="4" x="884.3223" y="960.2402"/><text fill="#000000" font-family="'JetBrains Mono'" font-size="12" lengthAdjust="spacing" textLength="65.748" x="792.67" y="980.8417">StepBudget</text><text fill="#000000" font-family="'JetBrains Mono'" font-size="12" lengthAdjust="spacing" textLength="88.6523" x="792.67" y="994.9745">ResilienceLayer</text></g><!--entity reg2--><g class="entity" data-qualified-name="workspace.tools.reg2" data-source-line="33" id="ent0018"><rect fill="#FFFFFF" height="58.2656" rx="2.5" ry="2.5" style="stroke:#000000;stroke-width:1;" width="112.8086" x="1435.6" y="949.2402"/><rect fill="#FFFFFF" height="10" style="stroke:#000000;stroke-width:1;" width="15" x="1528.4086" y="954.2402"/><rect fill="#FFFFFF" height="2" style="stroke:#000000;stroke-width:1;" width="4" x="1526.4086" y="956.2402"/><rect fill="#FFFFFF" height="2" style="stroke:#000000;stroke-width:1;" width="4" x="1526.4086" y="960.2402"/><text fill="#000000" font-family="'JetBrains Mono'" font-size="12" lengthAdjust="spacing" textLength="72.8086" x="1450.6" y="980.8417">ToolRegistry</text><text fill="#000000" font-family="'JetBrains Mono'" font-size="12" lengthAdjust="spacing" textLength="57.2988" x="1450.6" y="994.9745">AuditTrail</text></g><!--entity native--><g class="entity" data-qualified-name="workspace.tools.native" data-source-line="34" id="ent0019"><rect fill="#FFFFFF" height="72.3984" rx="2.5" ry="2.5" style="stroke:#000000;stroke-width:1;" width="130.5684" x="1583.72" y="942.1702"/><rect fill="#FFFFFF" height="10" style="stroke:#000000;stroke-width:1;" width="15" x="1694.2884" y="947.1702"/><rect fill="#FFFFFF" height="2" style="stroke:#000000;stroke-width:1;" width="4" x="1692.2884" y="949.1702"/><rect fill="#FFFFFF" height="2" style="stroke:#000000;stroke-width:1;" width="4" x="1692.2884" y="953.1702"/><text fill="#000000" font-family="'JetBrains Mono'" font-size="12" lengthAdjust="spacing" textLength="78.0059" x="1598.72" y="973.7717">BashExecutor</text><text fill="#000000" font-family="'JetBrains Mono'" font-size="12" lengthAdjust="spacing" textLength="30.8848" x="1598.72" y="987.9045">FileIo</text><text fill="#000000" font-family="'JetBrains Mono'" font-size="12" lengthAdjust="spacing" textLength="90.5684" x="1598.72" y="1002.0373">PythonExecutor</text></g><!--entity mem--><g class="entity" data-qualified-name="workspace.memory.mem" data-source-line="38" id="ent0021"><rect fill="#FFFFFF" height="72.3984" rx="2.5" ry="2.5" style="stroke:#000000;stroke-width:1;" width="154.5977" x="1173.7" y="942.1702"/><rect fill="#FFFFFF" height="10" style="stroke:#000000;stroke-width:1;" width="15" x="1308.2977" y="947.1702"/><rect fill="#FFFFFF" height="2" style="stroke:#000000;stroke-width:1;" width="4" x="1306.2977" y="949.1702"/><rect fill="#FFFFFF" height="2" style="stroke:#000000;stroke-width:1;" width="4" x="1306.2977" y="953.1702"/><text fill="#000000" font-family="'JetBrains Mono'" font-size="12" lengthAdjust="spacing" textLength="96.8906" x="1188.7" y="973.7717">MemoryManager</text><text fill="#000000" font-family="'JetBrains Mono'" font-size="12" lengthAdjust="spacing" textLength="114.5977" x="1188.7" y="987.9045">Episodic / Semantic</text><text fill="#000000" font-family="'JetBrains Mono'" font-size="12" lengthAdjust="spacing" textLength="103.7109" x="1188.7" y="1002.0373">Procedural / FTS5</text></g><!--entity bridge--><g class="entity" data-qualified-name="workspace.aip.bridge" data-source-line="42" id="ent0023"><rect fill="#FFFFFF" height="86.5313" rx="2.5" ry="2.5" style="stroke:#000000;stroke-width:1;" width="137.6348" x="2062.18" y="698.6402"/><rect fill="#FFFFFF" height="10" style="stroke:#000000;stroke-width:1;" width="15" x="2179.8148" y="703.6402"/><rect fill="#FFFFFF" height="2" style="stroke:#000000;stroke-width:1;" width="4" x="2177.8148" y="705.6402"/><rect fill="#FFFFFF" height="2" style="stroke:#000000;stroke-width:1;" width="4" x="2177.8148" y="709.6402"/><text fill="#000000" font-family="'JetBrains Mono'" font-size="12" lengthAdjust="spacing" textLength="55.3711" x="2077.18" y="730.2417">AIPBridge</text><text fill="#000000" font-family="'JetBrains Mono'" font-size="12" lengthAdjust="spacing" textLength="58.3418" x="2077.18" y="744.3745">ToolProxy</text><text fill="#000000" font-family="'JetBrains Mono'" font-size="12" lengthAdjust="spacing" textLength="97.6348" x="2077.18" y="758.5073">MemoryInterface</text><text fill="#000000" font-family="'JetBrains Mono'" font-size="12" lengthAdjust="spacing" textLength="53.6133" x="2077.18" y="772.6402">LlmProxy</text></g><!--entity llmrouter--><g class="entity" data-qualified-name="workspace.llm.llmrouter" data-source-line="46" id="ent0025"><rect fill="#FFFFFF" height="72.3984" rx="2.5" ry="2.5" style="stroke:#000000;stroke-width:1;" width="170.5762" x="1821.71" y="942.1702"/><rect fill="#FFFFFF" height="10" style="stroke:#000000;stroke-width:1;" width="15" x="1972.2862" y="947.1702"/><rect fill="#FFFFFF" height="2" style="stroke:#000000;stroke-width:1;" width="4" x="1970.2862" y="949.1702"/><rect fill="#FFFFFF" height="2" style="stroke:#000000;stroke-width:1;" width="4" x="1970.2862" y="953.1702"/><text fill="#000000" font-family="'JetBrains Mono'" font-size="12" lengthAdjust="spacing" textLength="59.5605" x="1836.71" y="973.7717">LlmRouter</text><text fill="#000000" font-family="'JetBrains Mono'" font-size="12" lengthAdjust="spacing" textLength="130.5527" x="1836.71" y="987.9045">CompletionModel trait</text><text fill="#000000" font-family="'JetBrains Mono'" font-size="12" lengthAdjust="spacing" textLength="130.5762" x="1836.71" y="1002.0373">ToolCallHelper (ReAct)</text></g><!--entity backends--><g class="entity" data-qualified-name="workspace.llm.backends" data-source-line="47" id="ent0026"><rect fill="#FFFFFF" height="72.3984" rx="2.5" ry="2.5" style="stroke:#000000;stroke-width:1;" width="226.9141" x="2027.54" y="942.1702"/><rect fill="#FFFFFF" height="10" style="stroke:#000000;stroke-width:1;" width="15" x="2234.4541" y="947.1702"/><rect fill="#FFFFFF" height="2" style="stroke:#000000;stroke-width:1;" width="4" x="2232.4541" y="949.1702"/><rect fill="#FFFFFF" height="2" style="stroke:#000000;stroke-width:1;" width="4" x="2232.4541" y="953.1702"/><text fill="#000000" font-family="'JetBrains Mono'" font-size="12" lengthAdjust="spacing" textLength="148.3477" x="2042.54" y="973.7717">EmbeddedBackend [local]</text><text fill="#000000" font-family="'JetBrains Mono'" font-size="12" lengthAdjust="spacing" textLength="186.9141" x="2042.54" y="987.9045">OpenAICompatibleClient [cloud]</text><text fill="#000000" font-family="'JetBrains Mono'" font-size="12" lengthAdjust="spacing" textLength="134.5605" x="2042.54" y="1002.0373">AnthropicClient [cloud]</text></g><!--entity trigengine--><g class="entity" data-qualified-name="workspace.triggers.trigengine" data-source-line="51" id="ent0028"><rect fill="#FFFFFF" height="72.3984" rx="2.5" ry="2.5" style="stroke:#000000;stroke-width:1;" width="206.0781" x="145.96" y="298.0402"/><rect fill="#FFFFFF" height="10" style="stroke:#000000;stroke-width:1;" width="15" x="332.0381" y="303.0402"/><rect fill="#FFFFFF" height="2" style="stroke:#000000;stroke-width:1;" width="4" x="330.0381" y="305.0402"/><rect fill="#FFFFFF" height="2" style="stroke:#000000;stroke-width:1;" width="4" x="330.0381" y="309.0402"/><text fill="#000000" font-family="'JetBrains Mono'" font-size="12" lengthAdjust="spacing" textLength="166.0781" x="160.96" y="329.6417">TriggerEngine (acteur Tokio)</text><text fill="#000000" font-family="'JetBrains Mono'" font-size="12" lengthAdjust="spacing" textLength="122.1621" x="160.96" y="343.7745">TriggerEngineHandle</text><text fill="#000000" font-family="'JetBrains Mono'" font-size="12" lengthAdjust="spacing" textLength="156.3398" x="160.96" y="357.9073">TriggerPersistence (SQLite)</text></g><!--entity trigsources--><g class="entity" data-qualified-name="workspace.triggers.trigsources" data-source-line="52" id="ent0029"><rect fill="#FFFFFF" height="72.3984" rx="2.5" ry="2.5" style="stroke:#000000;stroke-width:1;" width="265.4453" x="387.28" y="298.0402"/><rect fill="#FFFFFF" height="10" style="stroke:#000000;stroke-width:1;" width="15" x="632.7253" y="303.0402"/><rect fill="#FFFFFF" height="2" style="stroke:#000000;stroke-width:1;" width="4" x="630.7253" y="305.0402"/><rect fill="#FFFFFF" height="2" style="stroke:#000000;stroke-width:1;" width="4" x="630.7253" y="309.0402"/><text fill="#000000" font-family="'JetBrains Mono'" font-size="12" lengthAdjust="spacing" textLength="167.7715" x="402.28" y="329.6417">CronTrigger &#183; IntervalTrigger</text><text fill="#000000" font-family="'JetBrains Mono'" font-size="12" lengthAdjust="spacing" textLength="200.3555" x="402.28" y="343.7745">OneshotTrigger &#183; FileWatchTrigger</text><text fill="#000000" font-family="'JetBrains Mono'" font-size="12" lengthAdjust="spacing" textLength="225.4453" x="402.28" y="357.9073">Webhook (axum route HMAC-SHA256)</text></g><!--entity types--><g class="entity" data-qualified-name="workspace.core.types" data-source-line="56" id="ent0031"><rect fill="#FFFFFF" height="86.5313" rx="2.5" ry="2.5" style="stroke:#000000;stroke-width:1;" width="214.8438" x="743.58" y="290.9802"/><rect fill="#FFFFFF" height="10" style="stroke:#000000;stroke-width:1;" width="15" x="938.4238" y="295.9802"/><rect fill="#FFFFFF" height="2" style="stroke:#000000;stroke-width:1;" width="4" x="936.4238" y="297.9802"/><rect fill="#FFFFFF" height="2" style="stroke:#000000;stroke-width:1;" width="4" x="936.4238" y="301.9802"/><text fill="#000000" font-family="'JetBrains Mono'" font-size="12" lengthAdjust="spacing" textLength="83.9648" x="758.58" y="322.5817">AgentManifest</text><text fill="#000000" font-family="'JetBrains Mono'" font-size="12" lengthAdjust="spacing" textLength="113.7656" x="758.58" y="336.7145">AIPTask / AIPResult</text><text fill="#000000" font-family="'JetBrains Mono'" font-size="12" lengthAdjust="spacing" textLength="149.5957" x="758.58" y="350.8473">ProcessState / TaskStatus</text><text fill="#000000" font-family="'JetBrains Mono'" font-size="12" lengthAdjust="spacing" textLength="174.8438" x="758.58" y="364.9802">RuntimeEvent (TriggerFired&#8230;)</text></g><!--entity ops--><g class="entity" data-qualified-name="ops" data-source-line="10" id="ent0002"><ellipse cx="1050.0045" cy="65.9102" fill="url(#g1p0f1pc4xzsku0)" rx="8" ry="8" style="stroke:#000000;stroke-width:1;"/><path d="M1050.0045,73.9102 L1050.0045,100.9102 M1037.0045,81.9102 L1063.0045,81.9102 M1050.0045,100.9102 L1037.0045,115.9102 M1050.0045,100.9102 L1063.0045,115.9102" fill="none" style="stroke:#000000;stroke-width:1;"/><text fill="#000000" font-family="'JetBrains Mono'" font-size="12" lengthAdjust="spacing" textLength="58.6289" x="1020.69" y="129.5117">Op&#233;rateur</text></g><!--entity dev--><g class="entity" data-qualified-name="dev" data-source-line="11" id="ent0003"><ellipse cx="2447.9993" cy="305.6802" fill="url(#g1p0f1pc4xzsku0)" rx="8" ry="8" style="stroke:#000000;stroke-width:1;"/><path d="M2447.9993,313.6802 L2447.9993,340.6802 M2434.9993,321.6802 L2460.9993,321.6802 M2447.9993,340.6802 L2434.9993,355.6802 M2447.9993,340.6802 L2460.9993,355.6802" fill="none" style="stroke:#000000;stroke-width:1;"/><text fill="#000000" font-family="'JetBrains Mono'" font-size="12" lengthAdjust="spacing" textLength="73.5586" x="2411.22" y="369.2817">D&#233;veloppeur</text></g><!--entity agent--><g class="entity" data-qualified-name="agent" data-source-line="60" id="ent0032"><rect fill="#2D4A22" height="48.2656" rx="2.5" ry="2.5" style="stroke:#000000;stroke-width:1;" width="204.5527" x="2345.72" y="525.3802"/><text fill="#000000" font-family="'JetBrains Mono'" font-size="12" lengthAdjust="spacing" textLength="77.8359" x="2355.72" y="546.9817">Agent Python</text><text fill="#000000" font-family="'JetBrains Mono'" font-size="12" lengthAdjust="spacing" textLength="184.5527" x="2355.72" y="561.1145">(LangGraph / CrewAI / Custom)</text></g><!--entity sqlite--><g class="entity" data-qualified-name="sqlite" data-source-line="62" id="ent0033"><path d="M335.59,1159.1402 C335.59,1149.1402 364.0031,1149.1402 364.0031,1149.1402 C364.0031,1149.1402 392.4162,1149.1402 392.4162,1159.1402 L392.4162,1196.4058 C392.4162,1206.4058 364.0031,1206.4058 364.0031,1206.4058 C364.0031,1206.4058 335.59,1206.4058 335.59,1196.4058 L335.59,1159.1402" fill="#2A3A4A" style="stroke:#000000;stroke-width:1;"/><path d="M335.59,1159.1402 C335.59,1169.1402 364.0031,1169.1402 364.0031,1169.1402 C364.0031,1169.1402 392.4162,1169.1402 392.4162,1159.1402" fill="none" style="stroke:#000000;stroke-width:1;"/><text fill="#000000" font-family="'JetBrains Mono'" font-size="12" lengthAdjust="spacing" textLength="36.8262" x="345.59" y="1184.7417">SQLite</text><text fill="#000000" font-family="'JetBrains Mono'" font-size="12" lengthAdjust="spacing" textLength="35.877" x="345.59" y="1198.8745">(FTS5)</text></g><!--entity sandbox--><g class="entity" data-qualified-name="sandbox" data-source-line="64" id="ent0034"><rect fill="#4A3728" height="48.2656" rx="2.5" ry="2.5" style="stroke:#000000;stroke-width:1;" width="132.1074" x="1767.95" y="1153.6402"/><text fill="#000000" font-family="'JetBrains Mono'" font-size="12" lengthAdjust="spacing" textLength="107.127" x="1777.95" y="1175.2417">Linux namespaces</text><text fill="#000000" font-family="'JetBrains Mono'" font-size="12" lengthAdjust="spacing" textLength="112.1074" x="1777.95" y="1189.3745">(unshare, sandbox)</text></g><!--entity mcp--><g class="entity" data-qualified-name="mcp" data-source-line="66" id="ent0035"><rect fill="#4A3728" height="48.2656" rx="2.5" ry="2.5" style="stroke:#000000;stroke-width:1;" width="134.9609" x="1597.52" y="1153.6402"/><text fill="#000000" font-family="'JetBrains Mono'" font-size="12" lengthAdjust="spacing" textLength="72.3809" x="1607.52" y="1175.2417">Serveur MCP</text><text fill="#000000" font-family="'JetBrains Mono'" font-size="12" lengthAdjust="spacing" textLength="114.9609" x="1607.52" y="1189.3745">(externe, optionnel)</text></g><!--entity cloudllm--><g class="entity" data-qualified-name="cloudllm" data-source-line="68" id="ent0036"><rect fill="#4A3728" height="62.3984" rx="2.5" ry="2.5" style="stroke:#000000;stroke-width:1;" width="173.5859" x="2203.21" y="1146.5702"/><text fill="#000000" font-family="'JetBrains Mono'" font-size="12" lengthAdjust="spacing" textLength="83.2383" x="2213.21" y="1168.1717">API Cloud LLM</text><text fill="#000000" font-family="'JetBrains Mono'" font-size="12" lengthAdjust="spacing" textLength="117.6445" x="2213.21" y="1182.3045">(OpenAI / Anthropic</text><text fill="#000000" font-family="'JetBrains Mono'" font-size="12" lengthAdjust="spacing" textLength="153.5859" x="2213.21" y="1196.4373">optionnel [feature=cloud])</text></g><!--link ops to cli--><g class="link" data-entity-1="ent0002" data-entity-2="ent0005" data-link-type="dependency" data-source-line="70" id="lnk37"><path d="M1050,132.3702 C1050,181.8002 1050,262.1202 1050,303.6302" fill="none" id="ops-to-cli" style="stroke:#444444;stroke-width:1;"/><polygon fill="#444444" points="1050,309.6302,1054,300.6302,1050,304.6302,1046,300.6302,1050,309.6302" style="stroke:#444444;stroke-width:1;"/><text fill="#000000" font-family="'JetBrains Mono'" font-size="12" lengthAdjust="spacing" textLength="95.5195" x="1051" y="174.6417">apollia-os [cmd]</text></g><!--link dev to agent--><g class="link" data-entity-1="ent0003" data-entity-2="ent0032" data-link-type="dependency" data-source-line="71" id="lnk38"><path d="M2448,371.9102 C2448,415.8502 2448,482.1802 2448,519.1602" fill="none" id="dev-to-agent" style="stroke:#444444;stroke-width:1;"/><polygon fill="#444444" points="2448,525.1602,2452,516.1602,2448,520.1602,2444,516.1602,2448,525.1602" style="stroke:#444444;stroke-width:1;"/><text fill="#000000" font-family="'JetBrains Mono'" font-size="12" lengthAdjust="spacing" textLength="25.6992" x="2449" y="438.0417">&#233;crit</text></g><!--link cli to runtime--><g class="link" data-entity-1="ent0005" data-entity-2="ent0006" data-link-type="dependency" data-source-line="72" id="lnk39"><path d="M1029.66,358.8502 C1015.19,374.7202 994.73,395.3902 974,410.4402 C920.63,449.1802 854.8725,483.2327 801.8512,507.8277 C775.3406,520.1252 752.0141,530.0583 735.012,537.0308 C726.511,540.517 719.5911,543.2631 714.6449,545.1945 C714.4904,545.2549 719.9278,543.1347 719.7771,543.1935" fill="none" id="cli-to-runtime" style="stroke:#444444;stroke-width:1;"/><polygon fill="#444444" points="714.187,545.3732,724.0253,545.8303,718.8454,543.5568,721.119,538.3769,714.187,545.3732" style="stroke:#444444;stroke-width:1;"/><text fill="#000000" font-family="'JetBrains Mono'" font-size="12" lengthAdjust="spacing" textLength="196.4238" x="961.76" y="438.0417">RuntimeClient (HTTP Unix socket)</text></g><!--link runtime to oria--><g class="link" data-entity-1="ent0006" data-entity-2="ent0013" data-link-type="dependency" data-source-line="73" id="lnk40"><path d="M714.4344,550.9763 C714.6521,550.9892 714.8737,551.0023 715.0993,551.0157 C716.9037,551.1229 718.9577,551.2481 721.244,551.3921 C730.3892,551.9681 743.2521,552.8455 758.7342,554.082 C789.6984,556.5552 831.1394,560.4652 874.2688,566.2752 C960.5275,577.8952 1053.54,597.1152 1083,627.6402 C1087.3613,632.1602 1090.9369,637.2828 1093.8542,642.7914 C1095.3128,645.5456 1096.6069,648.3964 1097.7523,651.3165 C1098.325,652.7766 1098.8605,654.254 1099.3609,655.7454 C1099.486,656.1182 1099.6089,656.4919 1099.7296,656.8665 C1099.79,657.0537 1098.0425,651.5199 1098.1018,651.7075" fill="none" id="runtime-to-oria" style="stroke:#444444;stroke-width:1;"/><polygon fill="#444444" points="1099.9091,657.4289,1101.0124,647.642,1098.403,652.6611,1093.3839,650.0517,1099.9091,657.4289" style="stroke:#444444;stroke-width:1;"/><text fill="#000000" font-family="'JetBrains Mono'" font-size="12" lengthAdjust="spacing" textLength="84.5918" x="1070.65" y="616.2417">dispatch t&#226;che</text></g><!--link oria to tools--><g class="link" data-entity-1="ent0013" data-entity-2="ent0017" data-link-type="dependency" data-source-line="74" id="lnk41"><path d="M1110.4184,744.3542 C1115.2835,745.1905 1122.1503,746.374 1130.7372,747.8617 C1147.9111,750.8372 1171.9652,755.0296 1200.6467,760.0947 C1258.0097,770.2248 1333.8819,783.8458 1410.2388,798.2039 C1562.9525,826.9202 1717.605,858.5852 1730,871.1702 C1734.1463,875.3814 1737.575,880.1642 1740.4,885.3142 C1740.5766,885.6361 1740.7508,885.9594 1740.9227,886.284 C1741.0086,886.4464 1738.3259,881.2858 1738.4106,881.4488" fill="none" id="oria-to-tools" style="stroke:#444444;stroke-width:1;"/><polygon fill="#444444" points="1741.1788,886.7721,1740.5754,876.9418,1738.872,882.336,1733.4777,880.6326,1741.1788,886.7721" style="stroke:#444444;stroke-width:1;"/><text fill="#000000" font-family="'JetBrains Mono'" font-size="12" lengthAdjust="spacing" textLength="81.9199" x="1707.34" y="852.7717">ctx.tools.call()</text></g><!--link oria to memory--><g class="link" data-entity-1="ent0013" data-entity-2="ent0020" data-link-type="dependency" data-source-line="75" id="lnk42"><path d="M1110.1359,744.5492 C1110.4427,744.6151 1110.7575,744.6831 1111.0802,744.7532 C1116.2426,745.8743 1123.4145,747.5322 1132.0978,749.7967 C1149.4644,754.3258 1172.8762,761.2814 1198.3475,771.2227 C1249.29,791.1052 1308.47,822.9302 1344,871.1702 C1347.505,875.9289 1350.4503,881.1245 1352.9206,886.5775 C1352.9978,886.7479 1350.6293,881.4394 1350.7055,881.6103" fill="none" id="oria-to-memory" style="stroke:#444444;stroke-width:1;"/><polygon fill="#444444" points="1353.1508,887.0894,1353.1356,877.2406,1351.1131,882.5235,1345.8302,880.5009,1353.1508,887.0894" style="stroke:#444444;stroke-width:1;"/><text fill="#000000" font-family="'JetBrains Mono'" font-size="12" lengthAdjust="spacing" textLength="79.0137" x="1335.89" y="852.7717">ctx.memory.*</text></g><!--link oria to llm--><g class="link" data-entity-1="ent0013" data-entity-2="ent0024" data-link-type="dependency" data-source-line="76" id="lnk43"><path d="M1110.5153,744.0472 C1111.2112,744.1399 1111.948,744.2381 1112.7252,744.3416 C1118.9431,745.1696 1127.7464,746.3404 1138.8233,747.8096 C1160.977,750.748 1192.2249,754.8798 1230.0717,759.8502 C1305.7653,769.7908 1407.8544,783.0852 1516.3763,796.8927 C1733.42,824.5077 1976.195,854.1752 2085,863.1702 C2095.25,864.0202 2262.22,864.4402 2270,871.1702 C2274.4663,875.0402 2278.1362,879.5658 2281.1383,884.5271 C2281.5136,885.1473 2281.8784,885.7742 2282.233,886.4076 C2282.3217,886.5659 2279.5215,881.4655 2279.6089,881.6247" fill="none" id="oria-to-llm" style="stroke:#444444;stroke-width:1;"/><polygon fill="#444444" points="2282.4971,886.8838,2281.6709,877.0696,2280.0903,882.5012,2274.6587,880.9206,2282.4971,886.8838" style="stroke:#444444;stroke-width:1;"/><text fill="#000000" font-family="'JetBrains Mono'" font-size="12" lengthAdjust="spacing" textLength="53.4316" x="2142.4111" y="845.7717">Reasoner</text><text fill="#000000" font-family="'JetBrains Mono'" font-size="12" lengthAdjust="spacing" textLength="166.2539" x="2086" y="859.9045">Arc&lt;dyn CompletionModel&gt;</text></g><!--link runtime to aip--><g class="link" data-entity-1="ent0006" data-entity-2="ent0022" data-link-type="dependency" data-source-line="77" id="lnk44"><path d="M715.4782,550.9093 C715.9961,550.9313 716.5346,550.9541 717.0933,550.9779 C719.3284,551.0729 721.889,551.1819 724.7639,551.3043 C736.2637,551.7941 752.7928,552.4998 773.6339,553.3945 C815.316,555.1838 874.2461,557.7287 944.6853,560.8123 C1085.5638,566.9795 1272.4788,575.3014 1459.52,584.0427 C1833.6025,601.5252 2208.19,620.6852 2216,627.6402 C2220.69,631.8189 2224.5134,636.6842 2227.6126,642.0039 C2227.8063,642.3363 2227.9971,642.6706 2228.1852,643.0066 C2228.2792,643.1746 2225.4863,638.0828 2225.5789,638.2516" fill="none" id="runtime-to-aip" style="stroke:#444444;stroke-width:1;"/><polygon fill="#444444" points="2228.4652,643.5118,2227.6425,633.6974,2226.06,639.1283,2220.629,637.5458,2228.4652,643.5118" style="stroke:#444444;stroke-width:1;"/><text fill="#000000" font-family="'JetBrains Mono'" font-size="12" lengthAdjust="spacing" textLength="112.4883" x="2131.63" y="616.2417">AIPBridge.call_run()</text></g><!--link aip to agent--><g class="link" data-entity-1="ent0022" data-entity-2="ent0032" data-link-type="dependency" data-source-line="78" id="lnk45"><path d="M2243.1067,733.6544 C2243.2393,733.536 2243.3733,733.4162 2243.5088,733.295 C2244.0507,732.8106 2244.616,732.3053 2245.2039,731.7798 C2246.3797,730.7288 2247.646,729.5969 2248.9968,728.3895 C2251.6984,725.9746 2254.7381,723.2575 2258.0688,720.2803 C2271.3913,708.3717 2289.3675,692.3033 2308.97,674.7814 C2348.175,639.7377 2389.4113,602.8784 2417.4063,577.8584" fill="none" id="aip-to-agent" style="stroke:#444444;stroke-width:1;"/><polygon fill="#444444" points="2421.88,573.8602,2412.504,576.8751,2418.1519,577.192,2417.835,582.84,2421.88,573.8602" style="stroke:#444444;stroke-width:1;"/><text fill="#000000" font-family="'JetBrains Mono'" font-size="12" lengthAdjust="spacing" textLength="108.4629" x="2386.06" y="616.2417">PyO3 (asyncio.run)</text></g><!--link agent to aip--><g class="link" data-entity-1="ent0032" data-entity-2="ent0022" data-link-type="dependency" data-source-line="80" id="lnk47"><path d="M2345.32,564.7002 C2319.94,572.5702 2294.7,584.7702 2276,603.6402 C2264.9725,614.7727 2256.8894,628.7389 2250.9694,643.47 C2248.0094,650.8355 2245.5902,658.3923 2243.6141,665.8817 C2243.4906,666.3497 2243.3688,666.8176 2243.2487,667.2851 C2243.1887,667.5188 2244.6028,661.9363 2244.5436,662.1698" fill="none" id="agent-to-aip" style="stroke:#444444;stroke-width:1;"/><polygon fill="#444444" points="2243.0699,667.9861,2249.1579,660.2442,2244.298,663.1392,2241.403,658.2793,2243.0699,667.9861" style="stroke:#444444;stroke-width:1;"/><text fill="#000000" font-family="'JetBrains Mono'" font-size="12" lengthAdjust="spacing" textLength="87.4219" x="2277" y="616.2417">AIPResult (dict)</text></g><!--link aip to llm--><g class="link" data-entity-1="ent0022" data-entity-2="ent0024" data-link-type="dependency" data-source-line="79" id="lnk46"><path d="M2243.0788,770.0126 C2243.1262,770.1752 2243.1738,770.3383 2243.2215,770.502 C2243.317,770.8294 2243.413,771.1591 2243.5095,771.4909 C2243.7027,772.1546 2243.8982,772.8271 2244.0958,773.5081 C2244.491,774.8701 2244.8949,776.266 2245.3067,777.6934 C2246.1301,780.5482 2246.9848,783.5291 2247.8637,786.6164 C2254.895,811.3152 2263.475,842.8302 2270,871.1702 C2270.6631,874.0502 2271.3204,876.9778 2271.9699,879.9362 C2272.2947,881.4155 2272.6175,882.9024 2272.9382,884.395 C2273.0986,885.1413 2272.0103,880.0202 2272.1695,880.7691" fill="none" id="aip-to-llm" style="stroke:#444444;stroke-width:1;"/><polygon fill="#444444" points="2273.4176,886.6378,2275.458,877.0026,2272.3776,881.7472,2267.633,878.6668,2273.4176,886.6378" style="stroke:#444444;stroke-width:1;"/><text fill="#000000" font-family="'JetBrains Mono'" font-size="12" lengthAdjust="spacing" textLength="105.1465" x="2268.53" y="852.7717">ctx.llm (LlmProxy)</text></g><!--link tools to sandbox--><g class="link" data-entity-1="ent0017" data-entity-2="ent0034" data-link-type="dependency" data-source-line="81" id="lnk48"><path d="M1758.1684,998.5717 C1758.247,998.7563 1758.326,998.942 1758.4055,999.1288 C1758.7235,999.8759 1759.0488,1000.6404 1759.3813,1001.4216 C1764.7,1013.9198 1771.8325,1030.6808 1779.585,1048.8989 C1795.09,1085.3352 1810.7256,1122.0792 1821.6406,1147.7292" fill="none" id="tools-to-sandbox" style="stroke:#444444;stroke-width:1;"/><polygon fill="#444444" points="1823.99,1153.2502,1824.1466,1143.4025,1822.0322,1148.6494,1816.7854,1146.535,1823.99,1153.2502" style="stroke:#444444;stroke-width:1;"/><text fill="#000000" font-family="'JetBrains Mono'" font-size="12" lengthAdjust="spacing" textLength="84.8379" x="1814.246" y="1099.1717">bash_executor</text><text fill="#000000" font-family="'JetBrains Mono'" font-size="12" lengthAdjust="spacing" textLength="97.6699" x="1807.83" y="1113.3045">python_executor</text></g><!--link tools to mcp--><g class="link" data-entity-1="ent0017" data-entity-2="ent0035" data-link-type="dependency" data-source-line="82" id="lnk49"><path d="M1750.0192,1038.6395 C1749.7539,1039.9965 1749.4638,1041.3515 1749.1474,1042.7014 C1748.5145,1045.4014 1747.7758,1048.0811 1746.9177,1050.7156 C1743.485,1061.2539 1738.14,1071.0702 1730,1078.5702 C1707.62,1099.1902 1682.22,1063.8302 1662,1086.5702 C1646.07,1104.4902 1648.5555,1127.4544 1654.5055,1147.6644" fill="none" id="tools-to-mcp" style="stroke:#444444;stroke-width:1;"/><polygon fill="#444444" points="1656.2,1153.4202,1657.4953,1143.6569,1654.7879,1148.6237,1649.821,1145.9162,1656.2,1153.4202" style="stroke:#444444;stroke-width:1;"/><text fill="#000000" font-family="'JetBrains Mono'" font-size="12" lengthAdjust="spacing" textLength="125.0156" x="1663" y="1106.1717">mcp_consumer (v0.2)</text></g><!--link memory to sqlite--><g class="link" data-entity-1="ent0020" data-entity-2="ent0033" data-link-type="dependency" data-source-line="83" id="lnk50"><path d="M1364.137,1038.7662 C1363.8717,1040.1232 1363.5815,1041.4781 1363.2646,1042.8275 C1362.6308,1045.5265 1361.8902,1048.2041 1361.0288,1050.8352 C1357.5831,1061.3595 1352.205,1071.1402 1344,1078.5702 C1271.56,1144.1702 552.8869,1170.7268 398.7369,1175.6968" fill="none" id="memory-to-sqlite" style="stroke:#444444;stroke-width:1;"/><polygon fill="#444444" points="392.74,1175.8902,401.8642,1179.5981,397.7374,1175.729,401.6064,1171.6022,392.74,1175.8902" style="stroke:#444444;stroke-width:1;"/><text fill="#000000" font-family="'JetBrains Mono'" font-size="12" lengthAdjust="spacing" textLength="129.5449" x="1331.45" y="1106.1717">INSERT / FTS5 MATCH</text></g><!--link triggers to runtime--><g class="link" data-entity-1="ent0027" data-entity-2="ent0006" data-link-type="dependency" data-source-line="84" id="lnk51"><path d="M681.0101,394.4528 C680.7872,394.9225 680.5584,395.3888 680.3235,395.8515 C679.3839,397.7023 678.3474,399.4952 677.2046,401.2115 C674.9191,404.6441 672.2088,407.7702 669,410.4402 C647.95,427.9702 564.73,398.4602 546,418.4402 C536.88,428.1702 536.82,438.7702 546,448.4402 C557.64,460.7102 685.84,444.6902 698,456.4402 C701.6338,459.9527 704.4944,463.9947 706.7171,468.3828 C707.2728,469.4798 707.7886,470.5984 708.2667,471.7358 C708.3265,471.878 706.1078,466.4697 706.1663,466.6124" fill="none" id="triggers-to-runtime" style="stroke:#444444;stroke-width:1;"/><polygon fill="#444444" points="708.4442,472.1632,708.7279,462.3184,706.546,467.5376,701.3269,465.3556,708.4442,472.1632" style="stroke:#444444;stroke-width:1;"/><text fill="#000000" font-family="'JetBrains Mono'" font-size="12" lengthAdjust="spacing" textLength="159.293" x="547" y="431.0417">TriggerEvent &#8594; TaskRouter</text><text fill="#000000" font-family="'JetBrains Mono'" font-size="12" lengthAdjust="spacing" textLength="97.5938" x="577.8496" y="445.1745">(submit AIPTask)</text></g><!--link triggers to sqlite--><g class="link" data-entity-1="ent0027" data-entity-2="ent0033" data-link-type="dependency" data-source-line="85" id="lnk52"><path d="M681.0372,394.4887 C680.814,394.9578 680.5848,395.4236 680.3495,395.8858 C679.4084,397.7344 678.3698,399.5247 677.2247,401.2378 C674.9344,404.6639 672.2175,407.7814 669,410.4402 C657.16,420.2302 546.31,417.2702 531,418.4402 C352.5,432.0702 296.48,390.6302 130,456.4402 C67.81,481.0302 11,481.6402 11,548.5102 C11,548.5102 11,548.5102 11,979.3702 C11,1127.5302 244.8424,1164.9379 329.1424,1173.7279" fill="none" id="triggers-to-sqlite" style="stroke:#444444;stroke-width:1;"/><polygon fill="#444444" points="335.11,1174.3502,326.5734,1169.4384,330.137,1173.8316,325.7437,1177.3952,335.11,1174.3502" style="stroke:#444444;stroke-width:1;"/><text fill="#000000" font-family="'JetBrains Mono'" font-size="12" lengthAdjust="spacing" textLength="85.5" x="12" y="739.5117">trigger_history</text><text fill="#000000" font-family="'JetBrains Mono'" font-size="12" lengthAdjust="spacing" textLength="73.834" x="17.833" y="753.6445">trigger_state</text></g><!--link llm to cloudllm--><g class="link" data-entity-1="ent0024" data-entity-2="ent0036" data-link-type="dependency" data-source-line="86" id="lnk53"><path d="M2290,1038.7081 C2290,1038.9709 2290,1039.2341 2290,1039.4978 C2290,1040.0251 2290,1040.5542 2290,1041.085 C2290,1042.1465 2290,1043.2146 2290,1044.2889 C2290,1078.6652 2290,1113.2602 2290,1140.3702" fill="none" id="llm-to-cloudllm" style="stroke:#444444;stroke-width:1;"/><polygon fill="#444444" points="2290,1146.3702,2294,1137.3702,2290,1141.3702,2286,1137.3702,2290,1146.3702" style="stroke:#444444;stroke-width:1;"/><text fill="#000000" font-family="'JetBrains Mono'" font-size="12" lengthAdjust="spacing" textLength="62.5664" x="2308.8066" y="1099.1717">HTTP REST</text><text fill="#000000" font-family="'JetBrains Mono'" font-size="12" lengthAdjust="spacing" textLength="98.1797" x="2291" y="1113.3045">(feature = cloud)</text></g><?plantuml-src VLRDRXit4BxlKqpjYrJKJYCx_H6Q099grogiM9LKv1051iKTIuIvv8RaobAB03dr0Oe-GGy5_0Izrs-I9-cGtDMVOyc0bpl_dFbcPhzmCymGSic4IkojK3apB8C9uxTJemkLThJK1WxFmsz38iKRLaXthfLxpSZ2mS_eseQiMEXffGy-BpeKlo4yRsmmMyRekzB9QVXjCDlQf6YskOaJJY9qJg531iaX6lZqyI_u7Zg6ERJmHfjRcpEEWTpAjPI2mTKmIHXtPEZWAd-uzwA5EG1cGUSM3a-O_tjsDnCEAxaV7-xdA7MULv8fpdSa4uFSCJMbW0xMdjOX1BMxLK27pzbpra3uFKa0DbHPL3tYKenLRI8K4mQ1IvR3_BGUZ12hKdz2sHJAYGp9m22UA446etR9smW0wCTrbck5oi71iCZHp8NLyQQso7SbMbDw370gh3FBQ1Idkq8ZPcy7kd0OpPXmt1KwMo0ldD2gewc-T5bNUkN-_P7VVdT8eL6LQsnHPF4-B1UFhCxfqIuir2P6ivGpwwBifB0a--69h6aZ6ANiQj1jmPcQ4foYbgS_dQwhYGqnZPK78Ix8iKfbBBUUs5tn0JAhFL1hbvUz-bYjCj2NJ9MvZ1AFwk8mRnVf5DrO3T0AAL1nl6JBCiEJmDjpFwUrj7J14JsXAb-yOc0zVKUlKIcCLQj8XHjHWykgzerTXJQpitWpJOav5nAxUgpwIpVJgg87PQgucEEUe3FCj7TQwuN3Lc4Y3muRr8Mdx77OKQN759lw-fpb1EfKS7W6GymOjG6dc8pcc1Q6IIAVZuOlAijxOc8Yfu3wowiJQ1j1MI-HAFAdKzZgzgFiMFbiaji5tIf6s2NSc1kQ2cDrARF0YXKD2di2aJAZG0X8MsaXAer8Tl9juxl7SP23s9KUhrakqMElfrEKuAYaBeRNOL9UeCmzJWVOucvb-Oa-pYQOffYsQLcWIk6jr9p9TsDrbQDgTRqdAlH4OiUZri5RBdMH4h-btCpeNF1jHhn-DBQlPPqHKwfjG7Lvt4f5nTy3xIWHbMYkSByCOAHlXQRktE9UCD_OAsAVx597-2Q4sl2NIre2QwSOD7QTTOokjE6_Vo7KVSvaIQ9iARGpxJP4VEkyOOxFLZ9lS3BJ-ZQEm3XMuQBNwXmDBrgD5z-iGx2wC1ptPO_JKg3CkMLEkvBMh6FJXtjRBXdYxK6ptm3KME86BK66mEt7FNKGdMWsqOelEylQeQFzIXmluCy55QlSIc5EGrMvSrfqwQUF_vGty465s3zihrRl6U8ayTWdya-6vJFoq35ur-hwGs6ThjP3a3zifAUiqKYIb3asOPOCnOgH2T_qKTQ-bqIgvicMsqkXYWLDgmp3-lQ0AvITCODVWILSJFIYj15VgWRSCXAM5w6hr-cJFgqAD8hqTUvxKA4ifnhFFwjDsmywlZk06jxlgT1QFkTL3utLoXIylK7AjS6NiQ6gBmSwRuo79F5VF4T7hy8tHHDMcz1I8sRfkyH_vdXsp68J7kwv4IxnqfvSVKiqeQnesSMrYz6e3xygiG2hgObTFQb4lLfOg4r81UMIe0tkuMy-moIGFJzkeoPmjpWEvsCQ9h9MNqkKap-An9VZBzTiVqMAgLoaX4_3VqYN2dOctgkjgFpuRi9gJWUVroH0VZrhCmrXzDUONIekz379h4MYQn-MFzMgUKu2GNVBKUmKgD5EeWp5Mtk12aDD6e5sTeshHPe7sAy86oeUD4t__vfhPOlC3-xvryUDUbAcAjYD-6v2z_NmR30g5nxqMgFEHR8QbTk5hIPWQDLFV_m9w-ywmg0j9fbmKFP_VTl8obr9lPxHk0pBl29OFniIdwY8mHATJGZu6PmDH-IZ13AyZ0Brv7y0?></g></svg>