<?plantuml 1.2026.2?><svg xmlns="http://www.w3.org/2000/svg" xmlns:xlink="http://www.w3.org/1999/xlink" contentStyleType="text/css" data-diagram-type="STATE" height="782px" preserveAspectRatio="none" style="width:1008px;height:782px;background:#FFFFFF;" version="1.1" viewBox="0 0 1008 782" width="1008px" zoomAndPan="magnify"><title>TaskState &#8212; Lifecycle T&#226;che &#8212; Apollia OS</title><defs/><g><g class="title" data-source-line="8"><text fill="#000000" font-family="'JetBrains Mono'" font-size="22" font-weight="bold" lengthAdjust="spacing" textLength="473.5156" x="263.1021" y="36.2695">TaskState &#8212; Lifecycle T&#226;che &#8212; Apollia OS</text></g><g class="start_entity" data-qualified-name=".start." data-source-line="10" id="ent0002"><ellipse cx="525.64" cy="67.9102" fill="#FFFFFF" rx="10" ry="10" style="stroke:#000000;stroke-width:1;"/></g><g class="entity" data-qualified-name="submitted" id="ent0003"><rect fill="#FFFFFF" height="50" rx="12.5" ry="12.5" style="stroke:#000000;stroke-width:1;" width="79.0039" x="486.14" y="176.1702"/><line style="stroke:#000000;stroke-width:1;" x1="486.14" x2="565.1439" y1="200.303" y2="200.303"/><text fill="#000000" font-family="'JetBrains Mono'" font-size="12" lengthAdjust="spacing" textLength="59.0039" x="496.14" y="192.7717">submitted</text></g><g class="entity" data-qualified-name="working" id="ent0005"><rect fill="#FFFFFF" height="50" rx="12.5" ry="12.5" style="stroke:#000000;stroke-width:1;" width="66.9395" x="492.17" y="325.6402"/><line style="stroke:#000000;stroke-width:1;" x1="492.17" x2="559.1095" y1="349.773" y2="349.773"/><text fill="#000000" font-family="'JetBrains Mono'" font-size="12" lengthAdjust="spacing" textLength="46.9395" x="502.17" y="342.2417">working</text></g><g class="entity" data-qualified-name="completed" id="ent0007"><rect fill="#FFFFFF" height="50" rx="12.5" ry="12.5" style="stroke:#000000;stroke-width:1;" width="81.1543" x="830.07" y="563.3702"/><line style="stroke:#000000;stroke-width:1;" x1="830.07" x2="911.2243" y1="587.503" y2="587.503"/><text fill="#000000" font-family="'JetBrains Mono'" font-size="12" lengthAdjust="spacing" textLength="61.1543" x="840.07" y="579.9717">completed</text></g><g class="entity" data-qualified-name="failed" id="ent0009"><rect fill="#FFFFFF" height="50" rx="12.5" ry="12.5" style="stroke:#000000;stroke-width:1;" width="52.2148" x="225.54" y="643.3702"/><line style="stroke:#000000;stroke-width:1;" x1="225.54" x2="277.7548" y1="667.503" y2="667.503"/><text fill="#000000" font-family="'JetBrains Mono'" font-size="12" lengthAdjust="spacing" textLength="32.2148" x="235.54" y="659.9717">failed</text></g><g class="entity" data-qualified-name="input_required" id="ent0011"><rect fill="#FFFFFF" height="50" rx="12.5" ry="12.5" style="stroke:#000000;stroke-width:1;" width="105.6172" x="242.83" y="475.1002"/><line style="stroke:#000000;stroke-width:1;" x1="242.83" x2="348.4472" y1="499.233" y2="499.233"/><text fill="#000000" font-family="'JetBrains Mono'" font-size="12" lengthAdjust="spacing" textLength="85.6172" x="252.83" y="491.7017">input_required</text></g><g class="entity" data-qualified-name="canceled" id="ent0013"><rect fill="#FFFFFF" height="50" rx="12.5" ry="12.5" style="stroke:#000000;stroke-width:1;" width="70.7598" x="539.26" y="643.3702"/><line style="stroke:#000000;stroke-width:1;" x1="539.26" x2="610.0198" y1="667.503" y2="667.503"/><text fill="#000000" font-family="'JetBrains Mono'" font-size="12" lengthAdjust="spacing" textLength="50.7598" x="549.26" y="659.9717">canceled</text></g><g class="end_entity" data-qualified-name=".end." data-source-line="23" id="ent0018"><ellipse cx="574.64" cy="765.3702" fill="none" rx="11" ry="11" style="stroke:#000000;stroke-width:1;"/><ellipse cx="574.64" cy="765.3702" fill="#FFFFFF" rx="6" ry="6" style="stroke:#000000;stroke-width:1;"/></g><g class="entity" data-qualified-name="GMN2" data-source-line="28" id="ent0003"><path d="M600.29,167.9102 L600.29,197.1702 L565.62,201.1702 L600.29,205.1702 L600.29,234.4414 A0,0 0 0 0 600.29,234.4414 L911.0009,234.4414 A0,0 0 0 0 911.0009,234.4414 L911.0009,177.9102 L901.0009,167.9102 L600.29,167.9102 A0,0 0 0 0 600.29,167.9102" fill="#FFFFFF" style="stroke:#000000;stroke-width:1;"/><path d="M901.0009,167.9102 L901.0009,177.9102 L911.0009,177.9102 L901.0009,167.9102" fill="#FFFFFF" style="stroke:#000000;stroke-width:1;"/><text fill="#000000" font-family="'JetBrains Mono'" font-size="12" lengthAdjust="spacing" textLength="93.2871" x="606.29" y="184.5117">Rejet&#233; si agent :</text><text fill="#000000" font-family="'JetBrains Mono'" font-size="12" lengthAdjust="spacing" textLength="235.8105" x="606.29" y="198.6445">- INITIALIZING &#8594; SubmitError::NotReady</text><text fill="#000000" font-family="'JetBrains Mono'" font-size="12" lengthAdjust="spacing" textLength="289.7109" x="606.29" y="212.7773">- STOPPING/STOPPED &#8594; SubmitError::Unavailable</text><text fill="#000000" font-family="'JetBrains Mono'" font-size="12" lengthAdjust="spacing" textLength="219.0703" x="606.29" y="226.9102">- DEGRADED &#8594; accept&#233; avec warning</text></g><g class="entity" data-qualified-name="GMN5" data-source-line="35" id="ent0006"><path d="M594.47,324.4402 L594.47,346.6402 L559.43,350.6402 L594.47,354.6402 L594.47,376.8386 A0,0 0 0 0 594.47,376.8386 L802.8177,376.8386 A0,0 0 0 0 802.8177,376.8386 L802.8177,334.4402 L792.8177,324.4402 L594.47,324.4402 A0,0 0 0 0 594.47,324.4402" fill="#FFFFFF" style="stroke:#000000;stroke-width:1;"/><path d="M792.8177,324.4402 L792.8177,334.4402 L802.8177,334.4402 L792.8177,324.4402" fill="#FFFFFF" style="stroke:#000000;stroke-width:1;"/><text fill="#000000" font-family="'JetBrains Mono'" font-size="12" lengthAdjust="spacing" textLength="187.3477" x="600.47" y="341.0417">StepBudget surveill&#233; en continu.</text><text fill="#000000" font-family="'JetBrains Mono'" font-size="12" lengthAdjust="spacing" textLength="151.3359" x="600.47" y="355.1745">BudgetExceeded &#8594; failed.</text><text fill="#000000" font-family="'JetBrains Mono'" font-size="12" lengthAdjust="spacing" textLength="121.3887" x="600.47" y="369.3073">ResilienceLayer actif.</text></g><g class="entity" data-qualified-name="GMN8" data-source-line="41" id="ent0009"><path d="M383.32,466.8402 L383.32,496.1002 L348.87,500.1002 L383.32,504.1002 L383.32,533.3714 A0,0 0 0 0 383.32,533.3714 L665.9587,533.3714 A0,0 0 0 0 665.9587,533.3714 L665.9587,476.8402 L655.9587,466.8402 L383.32,466.8402 A0,0 0 0 0 383.32,466.8402" fill="#FFFFFF" style="stroke:#000000;stroke-width:1;"/><path d="M655.9587,466.8402 L655.9587,476.8402 L665.9587,476.8402 L655.9587,466.8402" fill="#FFFFFF" style="stroke:#000000;stroke-width:1;"/><text fill="#000000" font-family="'JetBrains Mono'" font-size="12" lengthAdjust="spacing" textLength="261.6387" x="389.32" y="483.4417">T&#226;che suspendue &#8212; oneshot channel ouvert.</text><text fill="#000000" font-family="'JetBrains Mono'" font-size="12" lengthAdjust="spacing" textLength="221.5664" x="389.32" y="497.5745">Prompt + context persist&#233;s en SQLite.</text><text fill="#000000" font-family="'JetBrains Mono'" font-size="12" lengthAdjust="spacing" textLength="243.4043" x="389.32" y="511.7073">NotificationEngine &#8594; desktop / webhook.</text><text fill="#000000" font-family="'JetBrains Mono'" font-size="12" lengthAdjust="spacing" textLength="214.3066" x="389.32" y="525.8402">TimeoutWatcher scan toutes les 60s.</text></g><!--link *start* to submitted--><g class="link" data-entity-1="ent0002" data-entity-2="ent0003" data-link-type="dependency" data-source-line="10" id="lnk4"><path d="M525.64,78.3502 C525.64,98.5102 525.64,140.3302 525.64,169.7102" fill="none" id="*start*-to-submitted" style="stroke:#444444;stroke-width:1;"/><polygon fill="#444444" points="525.64,175.7102,529.64,166.7102,525.64,170.7102,521.64,166.7102,525.64,175.7102" style="stroke:#444444;stroke-width:1;"/><text fill="#000000" font-family="'JetBrains Mono'" font-size="12" lengthAdjust="spacing" textLength="114.4922" x="526.64" y="120.5117">POST /api/v1/tasks</text><text fill="#000000" font-family="'JetBrains Mono'" font-size="12" lengthAdjust="spacing" textLength="101.2324" x="533.2699" y="134.6445">ou apollia-os run</text></g><!--link submitted to working--><g class="link" data-entity-1="ent0003" data-entity-2="ent0005" data-link-type="dependency" data-source-line="12" id="lnk6"><path d="M525.64,226.5302 C525.64,253.8502 525.64,291.9102 525.64,319.2502" fill="none" id="submitted-to-working" style="stroke:#444444;stroke-width:1;"/><polygon fill="#444444" points="525.64,325.2502,529.64,316.2502,525.64,320.2502,521.64,316.2502,525.64,325.2502" style="stroke:#444444;stroke-width:1;"/><text fill="#000000" font-family="'JetBrains Mono'" font-size="12" lengthAdjust="spacing" textLength="78.5039" x="577.3558" y="277.0417">agent ACTIVE</text><text fill="#000000" font-family="'JetBrains Mono'" font-size="12" lengthAdjust="spacing" textLength="179.9355" x="526.64" y="291.1745">ExecutionCoordinator dispatch</text></g><!--link working to completed--><g class="link" data-entity-1="ent0005" data-entity-2="ent0007" data-link-type="dependency" data-source-line="14" id="lnk8"><path d="M559.35,370.0302 C565.01,372.6102 570.91,375.0002 576.64,376.8402 C717.76,422.0202 816.74,342.7102 897.64,466.8402 C916.85,496.3002 903.2842,532.2354 888.9542,558.0254" fill="none" id="working-to-completed" style="stroke:#444444;stroke-width:1;"/><polygon fill="#444444" points="886.04,563.2702,893.9078,557.3458,888.4685,558.8995,886.9148,553.4602,886.04,563.2702" style="stroke:#444444;stroke-width:1;"/><text fill="#000000" font-family="'JetBrains Mono'" font-size="12" lengthAdjust="spacing" textLength="126.9199" x="873.8" y="426.4417">AIPResult.completed()</text></g><!--link working to failed--><g class="link" data-entity-1="ent0005" data-entity-2="ent0009" data-link-type="dependency" data-source-line="15" id="lnk10"><path d="M492,354.7602 C395.28,364.4902 120.08,397.9002 68.64,466.8402 C11,544.0902 156.803,623.3213 219.983,653.1113" fill="none" id="working-to-failed" style="stroke:#444444;stroke-width:1;"/><polygon fill="#444444" points="225.41,655.6702,218.9754,648.2139,220.8875,653.5378,215.5636,655.4498,225.41,655.6702" style="stroke:#444444;stroke-width:1;"/><text fill="#000000" font-family="'JetBrains Mono'" font-size="12" lengthAdjust="spacing" textLength="97.9805" x="98.5707" y="497.7017">AIPResult.failed()</text><text fill="#000000" font-family="'JetBrains Mono'" font-size="12" lengthAdjust="spacing" textLength="155.8418" x="69.64" y="511.8345">ou erreur non-r&#233;cup&#233;rable</text></g><!--link working to input_required--><g class="link" data-entity-1="ent0005" data-entity-2="ent0011" data-link-type="dependency" data-source-line="16" id="lnk12"><path d="M520.57,376.1302 C515.32,395.4002 505.18,421.4702 486.64,436.8402 C443.99,472.2002 417.92,448.4902 365.64,466.8402 C359.08,469.1402 357.8079,469.4837 351.1579,472.3237" fill="none" id="working-to-input_required" style="stroke:#444444;stroke-width:1;"/><polygon fill="#444444" points="345.64,474.6802,355.4878,474.824,350.2382,472.7164,352.3458,467.4668,345.64,474.6802" style="stroke:#444444;stroke-width:1;"/><text fill="#000000" font-family="'JetBrains Mono'" font-size="12" lengthAdjust="spacing" textLength="151.3828" x="515.1127" y="419.4417">AIPResult.input_required()</text><text fill="#000000" font-family="'JetBrains Mono'" font-size="12" lengthAdjust="spacing" textLength="163.4883" x="509.06" y="433.5745">HITL &#8212; approbation requise</text></g><!--link input_required to working--><g class="link" data-entity-1="ent0011" data-entity-2="ent0005" data-link-type="dependency" data-source-line="19" id="lnk15"><path d="M285.46,474.8602 C278.71,454.5202 273.56,425.8402 288.64,406.8402 C313.66,375.3202 426.7076,360.7145 485.9776,355.0145" fill="none" id="input_required-to-working" style="stroke:#444444;stroke-width:1;"/><polygon fill="#444444" points="491.95,354.4402,482.6084,351.3201,486.973,354.9188,483.3742,359.2833,491.95,354.4402" style="stroke:#444444;stroke-width:1;"/><text fill="#000000" font-family="'JetBrains Mono'" font-size="12" lengthAdjust="spacing" textLength="188.9531" x="289.64" y="419.4417">POST /api/v1/tasks/{id}/resume</text><text fill="#000000" font-family="'JetBrains Mono'" font-size="12" lengthAdjust="spacing" textLength="100.9863" x="333.6234" y="433.5745">{ approved: true }</text></g><!--link working to canceled--><g class="link" data-entity-1="ent0005" data-entity-2="ent0013" data-link-type="dependency" data-source-line="17" id="lnk14"><path d="M559.56,369.4402 C565.19,372.0902 571.03,374.6602 576.64,376.8402 C621.5,394.2302 647.89,371.6002 680.64,406.8402 C729.05,458.9202 706.27,492.6502 713.64,563.3702 C715.95,585.4702 726.19,595.0302 713.64,613.3702 C690.62,647.0202 649.248,658.8398 616.258,663.6198" fill="none" id="working-to-canceled" style="stroke:#444444;stroke-width:1;"/><polygon fill="#444444" points="610.32,664.4802,619.8006,667.1483,615.2683,663.7632,618.6534,659.2309,610.32,664.4802" style="stroke:#444444;stroke-width:1;"/><text fill="#000000" font-family="'JetBrains Mono'" font-size="12" lengthAdjust="spacing" textLength="152.0918" x="713.8" y="497.7017">DELETE /api/v1/tasks/{id}</text><text fill="#000000" font-family="'JetBrains Mono'" font-size="12" lengthAdjust="spacing" textLength="133.3125" x="723.1896" y="511.8345">ou StepBudget timeout</text></g><!--link input_required to failed--><g class="link" data-entity-1="ent0011" data-entity-2="ent0009" data-link-type="dependency" data-source-line="20" id="lnk16"><path d="M271.34,525.5702 C262.38,536.2502 253.29,549.5002 248.64,563.3702 C239.86,589.5702 241.6449,615.6849 245.3049,637.2249" fill="none" id="input_required-to-failed" style="stroke:#444444;stroke-width:1;"/><polygon fill="#444444" points="246.31,643.1402,248.7458,633.5973,245.4724,638.2108,240.8589,634.9374,246.31,643.1402" style="stroke:#444444;stroke-width:1;"/><text fill="#000000" font-family="'JetBrains Mono'" font-size="12" lengthAdjust="spacing" textLength="188.9531" x="249.64" y="585.9717">POST /api/v1/tasks/{id}/resume</text><text fill="#000000" font-family="'JetBrains Mono'" font-size="12" lengthAdjust="spacing" textLength="180.0703" x="254.0814" y="600.1045">{ approved: false } &#8594; REJECTED</text></g><!--link input_required to canceled--><g class="link" data-entity-1="ent0011" data-entity-2="ent0013" data-link-type="dependency" data-source-line="21" id="lnk17"><path d="M347.86,525.5902 C353.83,528.2702 359.85,530.9102 365.64,533.3702 C399.45,547.7302 413.61,540.8802 442.64,563.3702 C464.29,580.1402 458.23,595.1202 478.64,613.3702 C496.46,629.3002 514.3811,639.9119 533.5611,649.3019" fill="none" id="input_required-to-canceled" style="stroke:#444444;stroke-width:1;"/><polygon fill="#444444" points="538.95,651.9402,532.6255,644.3902,534.4593,649.7416,529.1079,651.5754,538.95,651.9402" style="stroke:#444444;stroke-width:1;"/><text fill="#000000" font-family="'JetBrains Mono'" font-size="12" lengthAdjust="spacing" textLength="94.8223" x="546.7972" y="585.9717">TimeoutWatcher</text><text fill="#000000" font-family="'JetBrains Mono'" font-size="12" lengthAdjust="spacing" textLength="229.1367" x="479.64" y="600.1045">(&gt; input_required_timeout, d&#233;faut 24h)</text></g><!--link completed to *end*--><g class="link" data-entity-1="ent0007" data-entity-2="ent0018" data-link-type="dependency" data-source-line="23" id="lnk19"><path d="M829.8,613.5202 C759.7,654.9602 625.6341,734.2153 588.8841,755.9553" fill="none" id="completed-to-*end*" style="stroke:#444444;stroke-width:1;"/><polygon fill="#444444" points="583.72,759.0102,593.5027,757.8705,588.0234,756.4644,589.4295,750.9851,583.72,759.0102" style="stroke:#444444;stroke-width:1;"/></g><!--link failed to *end*--><g class="link" data-entity-1="ent0009" data-entity-2="ent0018" data-link-type="dependency" data-source-line="24" id="lnk20"><path d="M278.08,677.1402 C345.12,696.8602 513.8936,746.508 558.4236,759.598" fill="none" id="failed-to-*end*" style="stroke:#444444;stroke-width:1;"/><polygon fill="#444444" points="564.18,761.2902,556.6734,754.9143,559.383,759.88,554.4172,762.5895,564.18,761.2902" style="stroke:#444444;stroke-width:1;"/></g><!--link canceled to *end*--><g class="link" data-entity-1="ent0013" data-entity-2="ent0018" data-link-type="dependency" data-source-line="25" id="lnk21"><path d="M574.64,693.8302 C574.64,713.4102 574.64,733.8602 574.64,748.1702" fill="none" id="canceled-to-*end*" style="stroke:#444444;stroke-width:1;"/><polygon fill="#444444" points="574.64,754.1702,578.64,745.1702,574.64,749.1702,570.64,745.1702,574.64,754.1702" style="stroke:#444444;stroke-width:1;"/></g><?plantuml-src bLJ1Rjf04BtxAwRf9MaBD57K0uTA19oKY1AAtLPggQB57c2BsNLtPo5f5AcdVa3LB-YDx-1FyYKTsoJ193tK4XAUVVFcpPjPFw49pX3IH4ZbsQbKgJ1Y1aCHJST6EnKtTQ8DF3tEdmr4Z2FX4ZhMYhg26NPEaOuCirXugvNUUHmQoEy8-mSRXmrZz69Tv31_DWwFj8dHb4yzafGWXC9E0nA4SFFZDtJa2AFBA8kl_aIJ8jX8TP980MU1vtr-zWKgbTTWtN0cYJ26ElJEWX1g8fMr-NwDcCyEb7OWYhIAjc2Syhpxb8nWeGtB6tEw6ACYQ3J3zWT_eFmBZ1n9hPgQHKibY3N7qgQ2eeddtQPb596UfGaM6XhjNXyjkrEzY-xkbT0Z8PCjQ17QtSlbeZ7e32YjAcQrZ5owMXenJB14meOwEZVupKcpHLO-oaZVjCDERg18KwE78kiASe0jiqP2HLY8Q_aTF_JBRjQkP7oTQmm8qoCNZv60v0or8y_RabJszk5eShAQOSqp7AYhGjiSupgGSGZNZ_7TMVS_T2EHMEQ3cv-_eE-V-itGRpr6lj5yMFJqCHirce7QtJRyVDtr2uXNIxuC10U7aptFkz-4Z95tr5jBldszAt8Ry9JcbJToF27Ge_jrzW3w-1LfjGGhrwjPvs05sjrss6vqsf_QtPEygI3FyVdUcNgzgwcF8hxCeK5urkinh9R_yLiFuU-LcBF2VB-oZ9P_qc-qraWHHPXc2iGS8rW8etYO7geOCj7RqjV3PfgDxR3Ep54c2PEWuekYI2fNPKnnxbz4Y37RaPKhhAhcdLkPI6IhEk8I3GiXEQh-it9vDfo__cPOPrFESSNNGokq4qqGJOHIc81sSpIKbUiP7Xl1yrmVNX2aQAoqtBdDL0VlEf8m0xAvSYIZ_0BvQYmLvi9Zj5FIATHWWSE9rjCCMzuXi3nv80wWXOH_hrxQZOR-0W00?></g></svg>